<?xml version="1.0" standalone="no"?>
<!DOCTYPE svg PUBLIC "-//W3C//DTD SVG 20010904//EN"
 "http://www.w3.org/TR/2001/REC-SVG-20010904/DTD/svg10.dtd">
<svg version="1.0" xmlns="http://www.w3.org/2000/svg"
 width="2816.000000pt" height="1536.000000pt" viewBox="0 0 2816.000000 1536.000000"
 preserveAspectRatio="xMidYMid meet">
<metadata>
Created by potrace 1.16, written by Peter Selinger 2001-2019
</metadata>
<g transform="translate(0.000000,1536.000000) scale(0.100000,-0.100000)"
fill="#000000" stroke="none">
<path d="M14080 12918 c0 -1072 -7 -2549 -15 -3138 -2 -219 -8 -325 -18 -375
-9 -38 -18 -97 -22 -130 -4 -33 -13 -67 -20 -75 -6 -8 -22 -42 -35 -75 -13
-33 -28 -65 -34 -70 -6 -6 -24 -35 -40 -65 -16 -30 -43 -74 -60 -98 -31 -44
-144 -162 -155 -162 -3 0 -17 -16 -30 -35 -13 -19 -30 -35 -38 -35 -7 0 -16
-7 -19 -15 -4 -8 -14 -15 -24 -15 -10 0 -23 -7 -30 -15 -7 -8 -19 -15 -28 -15
-8 0 -23 -6 -31 -13 -9 -7 -43 -21 -76 -31 -33 -10 -71 -22 -85 -27 -49 -16
-146 -38 -200 -44 -82 -9 -319 -11 -313 -2 2 4 -7 8 -21 8 -35 2 -36 2 -73 22
-17 9 -38 14 -46 11 -8 -3 -18 0 -22 5 -3 6 -11 9 -16 5 -6 -3 -19 3 -30 15
-11 12 -30 21 -43 21 -13 0 -29 6 -35 14 -7 8 -23 17 -36 20 -14 4 -25 10 -25
15 0 5 -14 12 -31 16 -17 4 -33 13 -36 21 -3 8 -11 14 -19 14 -8 0 -14 5 -14
10 0 14 8 12 38 -8 15 -11 36 -22 47 -25 11 -4 65 -22 120 -41 71 -24 105 -31
118 -24 9 5 23 5 30 1 15 -9 58 -4 74 8 7 6 12 6 15 0 1 -6 14 -12 28 -13 20
-2 24 1 22 15 -3 16 1 18 26 12 36 -7 50 16 24 41 -13 13 -14 18 -4 22 7 2 22
13 32 24 19 21 40 17 40 -8 0 -8 5 -14 10 -14 6 0 10 9 10 20 0 11 -7 20 -16
20 -8 0 -12 5 -9 10 3 6 1 10 -4 10 -6 0 -11 7 -11 15 0 8 7 15 15 15 8 0 15
-5 15 -11 0 -6 6 -9 14 -6 8 3 17 -1 20 -9 3 -8 10 -14 16 -14 16 0 12 30 -5
36 -8 4 -13 10 -10 14 3 5 -4 6 -15 3 -11 -3 -20 0 -20 6 0 6 4 11 10 11 5 0
7 7 4 14 -5 12 4 15 45 13 28 0 53 2 57 6 4 4 -5 7 -20 7 -16 0 -25 4 -21 10
3 6 30 10 58 10 37 0 48 3 37 10 -8 5 -13 10 -10 10 3 1 25 2 49 4 25 1 47 8
49 14 2 6 10 8 18 5 8 -3 24 3 34 12 11 10 20 15 20 12 0 -4 27 8 59 26 68 37
183 142 224 204 43 67 32 62 -22 -9 -62 -82 -115 -127 -199 -171 -143 -74
-273 -97 -416 -72 -233 41 -394 160 -499 370 -74 147 -99 262 -100 450 -1 239
49 438 252 1005 100 277 154 466 181 630 6 36 15 85 21 110 16 75 23 483 10
585 -35 267 -109 490 -229 690 -109 182 -271 344 -478 477 -54 35 -107 67
-118 71 -10 4 12 -26 49 -65 196 -212 299 -368 391 -596 145 -358 151 -821 18
-1247 -48 -154 -92 -266 -206 -525 -273 -619 -337 -824 -353 -1140 -8 -137 15
-370 44 -463 11 -34 25 -82 32 -107 7 -25 17 -51 22 -57 13 -18 67 -133 67
-144 0 -26 -20 1 -64 89 -60 118 -69 139 -94 222 -11 36 -28 69 -38 75 -29 17
-50 41 -65 73 -11 26 -18 30 -39 25 -30 -7 -60 -36 -60 -58 0 -22 -11 -19 -53
16 -37 31 -47 54 -25 61 7 3 8 10 3 17 -6 11 -10 10 -17 -2 -6 -12 -21 -15
-55 -13 -54 3 -50 -13 -58 196 -5 135 -2 162 52 455 3 17 3 28 0 25 -11 -11
-67 -260 -77 -345 -13 -117 -13 -346 1 -460 20 -170 91 -406 162 -537 63 -117
72 -131 144 -227 248 -332 585 -523 1158 -657 317 -74 463 -136 573 -244 68
-68 128 -188 144 -293 11 -65 16 -77 38 -88 l25 -12 -40 -18 c-22 -9 -45 -18
-51 -18 -7 -1 -19 -12 -28 -26 -9 -14 -22 -22 -30 -19 -20 8 -31 -52 -16 -91
6 -17 34 -53 62 -82 l50 -51 -4 -71 c-3 -56 -1 -72 12 -77 8 -4 106 -8 218
-10 112 -2 213 -6 224 -10 39 -12 -4 -23 -134 -36 -99 -9 -143 -9 -216 2 -51
7 -97 19 -102 25 -9 11 -17 10 -40 -2 -32 -15 -37 -32 -18 -51 8 -8 8 -15 -3
-28 -12 -16 -12 -17 4 -11 26 10 40 -2 23 -19 -8 -8 -17 -14 -21 -14 -11 0
-60 -62 -67 -84 -5 -17 -6 -16 -7 8 -1 24 -3 28 -13 17 -8 -7 -13 -38 -12 -80
0 -71 19 -113 71 -154 13 -10 23 -25 23 -32 0 -8 8 -19 18 -25 15 -10 15 -10
-3 -8 -37 5 -31 -37 9 -67 35 -27 36 -28 36 -101 0 -40 -4 -76 -10 -79 -15 -9
-12 -28 3 -22 19 7 18 -24 -1 -46 -14 -15 -67 -47 -80 -47 -3 0 4 10 15 22 28
32 36 48 24 48 -6 0 -22 -18 -36 -40 -26 -41 -35 -123 -15 -135 6 -3 10 -14
10 -23 0 -19 29 -41 75 -58 22 -8 31 -19 37 -45 4 -19 5 -1309 2 -2867 l-5
-2832 400 0 401 0 0 2728 c0 1500 3 2791 7 2869 l6 142 26 6 c78 18 125 129
86 204 -8 16 -32 44 -54 63 -34 29 -40 40 -46 90 -9 71 -1 105 25 113 32 10
53 58 38 90 -11 24 -9 29 21 52 43 34 71 95 71 156 0 60 -18 104 -64 155 -31
34 -35 44 -30 71 6 27 2 37 -26 66 -29 29 -32 39 -33 97 l-2 65 53 49 c47 43
55 55 59 96 6 53 -9 102 -35 114 -10 4 -32 8 -51 10 -19 2 -40 5 -48 8 -22 9
-14 26 13 26 16 0 23 4 18 12 -21 34 19 196 68 276 68 111 207 210 368 263 70
23 271 73 375 94 166 33 436 137 607 232 213 119 420 319 551 533 241 395 290
919 135 1450 -61 210 -115 334 -337 775 -258 512 -321 677 -375 985 -22 124
-23 406 -2 548 35 235 111 458 236 697 39 73 70 138 70 145 0 52 -242 -214
-339 -373 -111 -182 -184 -366 -228 -576 -24 -113 -27 -148 -27 -336 -1 -228
8 -304 56 -500 50 -205 91 -329 178 -540 5 -11 25 -55 44 -98 20 -44 36 -81
36 -83 0 -2 23 -52 50 -110 28 -58 50 -112 50 -118 0 -7 4 -16 9 -21 16 -16
127 -359 159 -490 75 -302 70 -580 -13 -815 -89 -252 -197 -400 -376 -520 -12
-8 -42 -30 -66 -47 -24 -18 -48 -33 -53 -33 -6 0 -21 -7 -34 -15 -35 -23 -181
-74 -260 -91 -100 -21 -266 -29 -306 -15 -24 8 -36 8 -46 0 -11 -9 -20 -8 -36
3 -13 8 -45 18 -72 22 -61 9 -77 16 -70 27 3 5 13 5 24 -1 11 -6 23 -9 27 -8
4 1 33 -1 64 -6 35 -4 66 -3 85 5 29 11 85 20 137 21 15 1 25 3 23 6 -3 2 -1
13 5 24 10 18 12 18 34 4 15 -10 26 -12 30 -6 3 6 1 10 -4 10 -6 0 -11 5 -11
11 0 6 7 9 15 5 8 -3 15 -1 15 4 0 6 -7 10 -16 10 -10 0 -14 5 -10 15 3 9 -3
24 -13 34 -39 39 -48 76 -28 108 4 7 3 22 -3 33 -9 17 -8 21 2 19 20 -3 68 12
68 22 0 5 9 9 19 9 11 0 28 11 39 25 11 14 25 25 32 25 6 0 17 6 24 13 8 6 24
19 36 27 59 38 170 144 195 185 10 17 -15 -4 -56 -45 -119 -121 -251 -188
-419 -211 -199 -28 -428 63 -555 220 -128 159 -171 342 -129 549 28 140 88
246 213 375 71 74 75 79 72 120 -1 23 -8 69 -16 102 -13 57 -40 200 -135 710
-22 121 -54 290 -70 375 -61 320 -69 368 -84 475 -9 61 -30 189 -47 285 -16
96 -45 274 -64 395 -18 121 -54 343 -79 493 -25 150 -46 277 -46 282 0 6 -4
10 -9 10 -4 0 -4 -19 0 -42 9 -42 64 -386 99 -623 10 -66 35 -221 55 -345 20
-124 45 -279 55 -345 35 -231 197 -1124 266 -1465 19 -93 54 -292 54 -305 0
-6 -3 -6 -8 0 -8 9 -22 70 -56 245 -8 41 -31 149 -51 240 -20 91 -45 215 -55
277 -10 61 -23 129 -29 150 -5 21 -15 74 -21 118 -6 44 -16 96 -21 115 -12 49
-60 311 -94 525 -7 44 -23 141 -35 215 -12 74 -30 187 -40 250 -42 255 -118
747 -140 900 -5 36 -20 133 -34 215 -28 162 -32 225 -15 225 5 0 8 4 5 9 -3 5
-8 26 -11 47 -24 162 -54 302 -66 310 -5 3 -9 -440 -9 -1078z m-1346 -566 c50
-156 66 -269 66 -467 0 -144 -2 -165 -12 -165 -4 0 -8 44 -8 98 0 129 -49 467
-79 545 -13 35 -14 80 -2 72 5 -3 21 -40 35 -83z m3138 -89 c-4 -196 8 -339
43 -508 33 -156 134 -455 186 -548 6 -11 8 -21 5 -24 -8 -9 -26 8 -26 25 0 9
-7 26 -15 36 -8 11 -15 28 -15 38 0 10 -4 18 -10 18 -5 0 -10 7 -10 14 0 8
-16 42 -35 75 -19 32 -35 65 -35 72 0 7 -7 20 -16 30 -9 10 -16 34 -16 53 0
20 -4 39 -10 42 -12 8 -29 51 -34 88 -2 16 -8 34 -14 40 -5 5 -10 16 -10 22 0
7 -5 25 -12 41 -6 15 -12 33 -12 40 -1 7 -10 19 -21 27 -16 12 -18 17 -7 27
16 17 15 29 -3 29 -8 0 -15 -9 -15 -20 0 -12 -5 -17 -13 -14 -8 3 -20 -2 -27
-11 -13 -15 -5 -20 27 -16 25 3 23 -20 -3 -29 -32 -12 -58 4 -51 32 6 22 -6
23 -27 3 -22 -22 -26 -19 -26 21 0 37 -3 36 58 19 12 -4 22 -2 22 4 0 10 -37
35 -52 36 -20 1 -17 15 5 20 15 4 24 13 23 23 -1 20 -34 52 -53 52 -10 0 -12
17 -6 88 8 111 21 159 22 85 1 -28 6 -55 11 -58 6 -3 10 3 10 13 0 20 1 20 71
13 11 -1 17 -61 7 -67 -5 -3 -8 -11 -7 -17 4 -36 -2 -49 -21 -44 -24 6 -25 -5
-4 -38 15 -23 15 -25 0 -31 -19 -7 -21 -24 -3 -24 7 0 18 10 26 21 10 17 10
23 0 29 -17 11 -3 40 19 40 17 0 18 8 17 93 -1 50 2 97 7 104 5 7 7 17 3 23
-3 5 -3 15 1 22 4 7 9 23 10 35 5 43 27 133 33 133 3 0 4 -80 3 -177z m430
-1460 c87 -136 245 -494 299 -678 72 -252 102 -530 73 -703 -6 -38 -23 -34
-23 6 3 147 -12 293 -33 339 -6 11 -8 25 -4 31 3 5 -3 20 -13 33 -31 40 -51
95 -38 108 21 21 -4 25 -38 6 -20 -10 -38 -16 -41 -13 -3 4 7 12 22 20 41 19
55 82 26 111 -20 19 -22 19 -28 3 -4 -9 -2 -28 4 -41 9 -19 8 -24 -8 -28 -12
-3 -20 2 -23 14 -3 11 -1 17 4 13 5 -3 6 2 3 11 -4 10 -13 13 -24 10 -24 -8
-34 9 -15 25 8 7 15 19 15 26 0 8 6 15 13 15 6 1 19 2 27 3 17 1 27 36 11 36
-6 0 -11 -4 -11 -9 0 -5 -13 4 -30 21 -31 31 -38 48 -19 48 6 0 13 -9 16 -19
6 -25 42 -35 50 -14 4 10 -3 23 -17 35 -22 18 -22 19 -5 32 17 12 17 13 0 20
-11 4 -15 13 -12 26 3 10 -1 27 -9 37 -7 10 -14 34 -14 53 0 20 -6 44 -14 55
-7 11 -16 34 -20 50 -5 22 -114 255 -163 348 -2 4 0 7 5 7 5 0 20 -17 34 -37z
m-3973 -1188 c11 -89 35 -200 64 -302 20 -71 0 -60 -35 20 -40 89 -58 169 -63
274 -8 158 15 164 34 8z m2111 -110 c0 -3 7 -39 15 -80 16 -78 52 -179 85
-245 23 -45 24 -50 9 -50 -14 0 -79 53 -79 65 -1 14 -36 55 -48 55 -5 0 -12 7
-16 15 -3 8 -1 15 4 15 6 0 10 7 10 15 0 21 -20 19 -40 -5 -14 -16 -20 -18
-26 -9 -4 7 -2 15 4 17 7 2 12 9 12 17 0 7 8 19 17 26 11 10 14 10 9 2 -4 -8
-2 -13 4 -13 12 0 9 24 -6 64 -3 9 -1 16 4 16 6 0 10 12 10 28 -1 35 11 72 23
72 5 0 9 -2 9 -5z m-577 -961 c59 -8 123 -14 142 -14 33 0 35 -2 35 -33 0 -19
-7 -76 -16 -128 -16 -94 -16 -272 1 -313 8 -17 4 -18 -66 -11 -186 17 -360 68
-367 108 -5 27 38 30 205 13 218 -22 205 -24 201 21 l-4 37 -104 18 c-184 30
-301 73 -308 112 -4 18 3 18 95 13 54 -4 147 -12 206 -20 l109 -13 9 23 c20
54 16 58 -94 75 -165 26 -294 78 -281 113 10 25 40 25 237 -1z m652 10 c36
-24 32 -50 -12 -73 -46 -23 -272 -64 -328 -59 -38 3 -40 4 -47 47 -4 24 -5 48
-2 52 3 5 24 9 47 10 23 0 89 8 147 19 134 23 165 24 195 4z m53 -190 c18 -12
20 -19 12 -34 -20 -37 -90 -59 -290 -90 -41 -6 -85 -14 -97 -16 -28 -5 -36 9
-41 67 l-3 45 113 13 c130 16 234 27 263 29 11 1 31 -5 43 -14z m-18 -195 l34
-21 -27 -24 c-40 -34 -121 -54 -314 -76 -57 -6 -105 -9 -108 -7 -3 3 1 29 7
57 l12 51 66 6 c36 3 110 12 165 19 134 18 126 19 165 -5z m-496 -937 c73 -14
84 -23 63 -55 -12 -19 -35 -29 -113 -47 -161 -37 -344 -19 -344 33 0 70 203
105 394 69z m-23 -591 c20 -6 41 -11 45 -10 44 8 44 -17 2 -64 -47 -51 -137
-79 -248 -78 -138 2 -188 24 -196 85 -3 28 0 38 13 43 10 3 25 12 33 19 26 22
289 26 351 5z m481 -42 c10 -5 21 -21 24 -36 17 -64 -92 -73 -166 -14 -20 16
-23 23 -14 38 19 31 107 38 156 12z m-482 -623 c63 -11 100 -26 100 -43 0 -7
-8 -16 -17 -20 -10 -3 -25 -11 -33 -18 -36 -27 -107 -40 -225 -39 -147 1 -178
11 -173 56 3 36 43 64 100 70 50 6 197 2 248 -6z m-60 -306 c23 -20 23 -20 2
-20 -32 0 -36 -17 -7 -36 13 -9 22 -20 19 -26 -3 -5 -8 -35 -9 -66 -3 -35 -1
-51 5 -42 18 29 21 0 4 -30 -13 -22 -16 -33 -7 -38 6 -4 11 -38 11 -87 0 -43
4 -81 10 -83 5 -1 8 -32 5 -75 -8 -139 -8 -459 0 -464 4 -3 4 -10 -1 -16 -5
-7 -9 -28 -10 -47 -1 -19 -5 -48 -8 -64 -4 -19 -1 -32 7 -37 9 -6 10 -12 4
-16 -6 -5 -10 -129 -10 -338 0 -183 -4 -336 -9 -343 -6 -8 -2 -19 10 -33 14
-16 15 -22 5 -28 -15 -10 -24 -138 -10 -147 5 -3 7 -22 4 -42 -3 -20 -7 -93
-8 -162 -2 -69 -7 -131 -11 -138 -4 -7 -3 -19 4 -27 6 -8 7 -16 2 -19 -13 -8
-22 -56 -11 -56 5 0 9 -18 9 -39 0 -22 5 -41 12 -43 10 -4 10 -11 2 -29 -6
-13 -10 -69 -8 -126 1 -56 -1 -102 -5 -101 -18 2 -21 -4 -11 -21 6 -12 7 -36
1 -64 -5 -27 -4 -52 1 -62 7 -12 4 -23 -12 -40 -23 -24 -20 -45 6 -45 19 0 18
-10 -2 -25 -14 -10 -14 -15 -5 -34 10 -18 9 -27 -4 -47 -14 -22 -14 -27 -1
-46 13 -18 13 -24 1 -42 -9 -13 -11 -27 -5 -35 5 -9 3 -19 -6 -28 -18 -18 -18
-28 1 -47 14 -14 14 -19 -4 -53 -11 -24 -17 -49 -14 -66 4 -21 2 -26 -10 -21
-8 3 -18 0 -22 -5 -8 -14 -25 -5 -25 13 0 7 9 22 20 34 12 12 16 22 9 22 -6 0
-9 7 -6 15 4 8 2 17 -3 20 -14 9 -12 53 3 58 10 4 10 7 0 18 -7 7 -13 23 -13
35 0 12 6 25 13 27 9 4 9 7 -1 15 -7 5 -12 13 -11 18 1 5 -2 18 -6 28 -5 11
-4 36 2 57 6 24 6 43 0 54 -5 10 -7 34 -3 54 4 25 1 44 -9 58 -8 11 -12 23 -9
25 10 11 14 57 4 63 -6 4 -5 13 3 26 10 17 9 22 -5 33 -18 13 -24 36 -10 36 9
0 10 96 0 105 -6 7 -1 149 7 172 2 7 1 14 -3 17 -7 4 -7 272 -1 381 2 23 0 46
-4 51 -3 6 -2 25 3 42 7 26 5 34 -8 41 -14 8 -15 14 -5 29 7 12 10 53 8 113
-5 138 -20 882 -19 967 0 39 -2 72 -5 72 -3 0 -6 36 -6 79 0 44 3 77 7 75 3
-2 4 5 1 15 -3 10 0 27 5 38 7 13 6 24 -4 37 -7 10 -11 23 -8 28 6 9 10 60 18
231 3 53 8 102 11 107 3 6 1 10 -4 10 -16 0 -13 36 4 54 17 16 20 36 6 36 -5
0 -17 -7 -25 -16 -9 -8 -16 -11 -16 -5 0 5 7 14 16 19 12 7 15 18 12 37 -5 24
-3 26 18 22 13 -2 24 0 24 4 0 5 7 9 15 9 8 0 24 9 35 20 11 11 22 20 23 20 2
0 14 -9 27 -20z"/>
<path d="M11969 13240 c42 -66 152 -303 196 -419 46 -123 89 -298 105 -428 6
-43 10 -152 10 -243 1 -357 -95 -679 -341 -1149 -38 -73 -68 -135 -66 -138 8
-7 160 291 230 447 136 307 194 562 204 900 3 102 9 193 14 202 6 10 5 18 -2
20 -6 2 -13 31 -15 66 -5 53 -3 62 11 62 12 0 15 -6 10 -20 -5 -15 -3 -18 9
-14 9 3 16 10 16 14 0 5 9 11 19 15 21 6 35 43 22 59 -5 6 -16 35 -25 65 -16
54 -82 183 -143 279 -42 65 -165 212 -229 272 -46 44 -47 44 -25 10z"/>
<path d="M15346 12008 c-34 -248 -1 -583 93 -928 22 -80 87 -278 144 -440 141
-397 183 -546 223 -795 21 -129 13 -276 -21 -403 -14 -51 -25 -96 -24 -100 0
-11 41 91 45 113 2 11 8 38 13 60 23 95 35 299 23 398 -9 75 -2 97 34 97 28 0
94 -65 94 -93 0 -11 5 -17 13 -14 6 2 11 11 9 21 -2 12 5 16 28 16 32 0 40 14
14 24 -8 3 -12 10 -9 16 9 15 25 12 25 -5 0 -8 5 -15 10 -15 6 0 9 -5 8 -11
-2 -6 3 -14 10 -16 8 -3 10 1 6 12 -9 23 15 65 37 65 26 0 36 45 15 65 -13 13
-14 21 -5 37 8 15 8 22 0 27 -6 4 -11 22 -13 40 -1 18 -6 35 -10 37 -5 3 -5
16 -2 30 4 14 2 24 -5 24 -6 0 -11 9 -11 19 0 11 -4 23 -10 26 -5 3 -10 19
-10 35 0 16 -4 32 -10 35 -5 3 -10 17 -10 31 0 14 -6 24 -14 24 -8 0 -15 16
-19 41 -3 23 -10 45 -15 48 -5 3 -21 41 -35 84 -15 42 -37 99 -48 125 -12 26
-28 63 -36 82 -41 96 -75 160 -84 160 -6 0 -9 8 -8 18 3 26 -10 53 -45 91 -17
19 -25 31 -18 27 19 -11 14 22 -7 45 -10 11 -21 33 -24 49 -4 18 -17 33 -36
43 -24 12 -29 12 -24 1 3 -8 11 -14 18 -14 19 0 26 -27 10 -40 -8 -7 -12 -16
-9 -21 7 -12 -17 -11 -36 1 -13 9 -13 12 3 21 22 13 22 21 -3 37 -17 10 -24
10 -42 -2 -11 -8 -26 -12 -33 -10 -7 3 -20 -5 -28 -17 -11 -14 -21 -19 -33
-15 -15 6 -15 9 6 31 12 13 28 21 34 19 7 -3 21 5 32 17 19 22 19 22 -3 15
-12 -4 -24 -2 -28 4 -10 17 -19 11 -44 -30 -26 -42 -41 -38 -41 11 0 15 -7 42
-15 61 -8 20 -24 102 -35 184 -12 82 -24 152 -26 156 -3 4 -5 93 -5 198 0 104
-2 190 -4 190 -1 0 -5 -19 -9 -42z"/>
<path d="M13431 10415 c-1 -5 -10 -50 -20 -100 -11 -49 -22 -115 -25 -145 l-7
-55 72 -74 c113 -118 186 -243 220 -381 9 -34 14 -104 13 -183 -1 -70 2 -124
5 -120 13 16 30 79 35 128 3 27 9 51 14 53 5 1 7 14 4 29 -3 18 -1 24 7 19 6
-4 11 -1 11 8 0 9 -7 16 -15 16 -19 0 -19 14 0 30 9 7 14 19 11 26 -7 19 4 24
29 14 19 -7 25 -5 30 10 6 20 35 28 35 10 0 -5 8 -10 18 -9 10 0 12 3 5 6 -22
8 -14 33 12 43 31 12 34 34 4 25 -12 -4 -29 -8 -38 -10 -9 -1 -16 -7 -16 -13
0 -15 -9 -22 -33 -27 -16 -3 -25 4 -36 26 -16 33 -8 39 14 9 8 -11 20 -20 27
-20 7 0 13 9 13 20 0 14 7 20 24 20 31 0 53 25 30 34 -9 3 -20 4 -25 0 -5 -3
-9 -1 -9 5 0 14 38 33 50 26 21 -13 8 18 -20 48 -16 18 -30 37 -30 43 0 16
-92 104 -138 131 -47 29 -160 64 -215 67 -87 5 -87 5 -87 29 0 13 9 68 21 122
11 54 18 110 16 124 -2 14 -5 22 -6 16z"/>
</g>
</svg>
