<?xml version="1.0" standalone="no"?>
<!DOCTYPE svg PUBLIC "-//W3C//DTD SVG 20010904//EN"
 "http://www.w3.org/TR/2001/REC-SVG-20010904/DTD/svg10.dtd">
<svg version="1.0" xmlns="http://www.w3.org/2000/svg"
 width="1664.000000pt" height="2514.000000pt" viewBox="0 0 1664.000000 2514.000000"
 preserveAspectRatio="xMidYMid meet">
<metadata>
Created by potrace 1.16, written by Peter Selinger 2001-2019
</metadata>
<g transform="translate(0.000000,2514.000000) scale(0.100000,-0.100000)"
fill="#000000" stroke="none">
<path d="M8140 18344 c-19 -2 -151 -8 -293 -14 -242 -10 -471 -26 -717 -50
-106 -11 -158 -18 -460 -66 -671 -105 -1211 -276 -1533 -487 -141 -93 -316
-274 -333 -346 -4 -14 -12 -33 -19 -41 -17 -22 -74 -156 -96 -225 -22 -73 -39
-180 -39 -255 0 -51 -3 -57 -36 -84 -111 -89 -118 -300 -17 -556 14 -36 38
-92 53 -125 15 -33 42 -91 60 -130 17 -38 50 -107 73 -152 35 -70 39 -85 30
-105 -53 -108 -37 -216 49 -313 34 -39 84 -68 136 -80 27 -5 37 -16 54 -53 12
-26 29 -58 39 -72 9 -14 51 -92 94 -175 42 -82 94 -181 115 -220 21 -38 57
-106 80 -150 24 -44 55 -102 70 -130 49 -91 127 -238 193 -365 35 -69 76 -145
89 -170 51 -91 156 -288 207 -390 30 -58 80 -154 113 -215 32 -60 83 -159 114
-220 l56 -110 -50 -52 c-67 -68 -94 -130 -93 -213 1 -78 17 -131 64 -200 l35
-52 -26 -51 c-37 -70 -42 -172 -13 -240 12 -27 19 -53 15 -58 -3 -5 -21 -9
-40 -9 -37 0 -201 -27 -367 -61 -109 -22 -403 -103 -429 -119 -10 -5 -23 -10
-30 -10 -7 -1 -31 -9 -53 -20 -22 -11 -43 -19 -47 -20 -26 -1 -274 -126 -392
-197 -221 -135 -485 -365 -676 -592 l-45 -53 -47 45 c-51 50 -88 62 -153 52
-60 -9 -104 -41 -142 -105 -30 -48 -33 -62 -33 -130 0 -74 -1 -77 -36 -111
-40 -39 -64 -78 -64 -108 0 -26 -27 -51 -240 -215 -427 -330 -605 -488 -760
-671 -65 -78 -154 -204 -178 -255 -79 -167 -94 -359 -37 -476 39 -80 126 -162
228 -216 l82 -43 115 0 c114 1 116 1 202 42 165 78 318 218 452 413 144 209
258 411 447 791 l108 216 40 7 c47 7 103 52 121 96 12 30 18 33 80 45 99 20
201 120 216 212 10 62 -44 145 -113 178 l-35 17 43 46 c227 244 455 431 680
557 80 45 281 145 292 145 4 0 26 8 50 19 193 86 483 166 723 201 l82 12 72
-72 73 -72 -62 -122 c-65 -128 -124 -238 -145 -271 -7 -11 -28 -47 -46 -80
-45 -81 -140 -250 -240 -425 -80 -141 -97 -170 -142 -247 -12 -21 -47 -83 -78
-138 -31 -55 -63 -111 -72 -125 -8 -14 -31 -54 -50 -90 -46 -86 -78 -143 -88
-155 -7 -9 -203 -349 -268 -465 -37 -67 -54 -96 -111 -193 -28 -49 -51 -92
-51 -96 0 -5 -18 -11 -41 -14 -84 -11 -179 -109 -179 -185 0 -18 -12 -59 -26
-90 -22 -47 -25 -67 -21 -117 4 -58 3 -63 -48 -150 -127 -217 -183 -361 -192
-497 -11 -155 28 -247 136 -320 26 -18 37 -35 47 -73 106 -415 418 -669 1199
-975 141 -55 254 -91 505 -160 440 -121 827 -187 1340 -230 74 -6 185 -15 246
-21 149 -12 806 -12 974 1 675 53 1127 137 1630 303 792 262 1266 622 1373
1044 12 48 29 92 37 97 63 39 128 162 137 260 6 69 -23 221 -59 305 -43 99
-104 219 -144 283 -40 63 -42 68 -33 110 11 48 5 102 -16 134 -9 14 -12 35 -8
57 7 48 -13 102 -55 149 -44 48 -79 67 -134 72 -23 2 -44 8 -46 14 -2 6 -16
30 -31 54 -75 115 -195 306 -211 334 -10 17 -37 62 -60 100 -24 38 -65 107
-92 153 -27 46 -58 97 -69 112 -10 15 -19 30 -19 33 0 4 -29 52 -64 109 -35
56 -84 138 -108 182 -25 44 -81 141 -125 215 -44 74 -111 191 -150 260 -83
148 -158 276 -201 345 -17 27 -29 51 -27 54 3 2 22 -8 43 -21 51 -34 142 -79
217 -107 33 -13 69 -27 80 -32 41 -17 217 -49 327 -59 153 -13 330 3 518 47
36 8 74 19 85 23 11 4 43 16 70 25 266 90 527 292 705 544 153 217 229 387
345 771 27 91 112 309 126 324 5 6 16 2 28 -8 49 -44 157 -59 218 -29 73 34
112 113 114 231 1 68 3 75 30 95 30 21 79 108 79 138 0 17 36 48 365 310 264
210 371 304 509 444 105 106 180 198 211 256 5 11 13 19 17 19 5 0 8 4 8 9 0
5 16 37 35 71 147 261 95 515 -138 670 -89 60 -178 84 -291 78 -50 -3 -100
-10 -111 -16 -11 -6 -35 -16 -54 -23 -64 -24 -176 -106 -258 -189 -46 -45 -83
-86 -83 -90 0 -4 -11 -20 -25 -36 -76 -88 -179 -261 -325 -549 -48 -93 -97
-188 -109 -210 -13 -22 -57 -106 -98 -188 -64 -125 -79 -148 -101 -153 -56
-11 -96 -40 -129 -91 -26 -41 -39 -53 -59 -53 -35 0 -128 -34 -165 -61 -91
-64 -115 -180 -58 -275 34 -55 77 -88 103 -78 25 10 19 -9 -27 -88 -37 -61
-177 -390 -177 -413 0 -28 -142 -385 -182 -457 -141 -256 -303 -415 -553 -543
-194 -99 -435 -141 -670 -116 -93 10 -233 39 -280 59 -84 36 -218 109 -255
139 -58 48 -180 173 -180 185 0 5 23 37 52 71 109 131 127 253 53 362 l-25 35
37 67 c47 85 51 164 14 230 -24 41 -24 42 -6 80 10 21 21 61 23 89 7 83 -27
141 -117 201 -2 1 8 21 21 45 14 24 42 75 63 113 21 39 48 88 60 110 35 61 82
150 137 255 153 292 187 356 246 465 117 216 129 239 169 315 22 41 57 107 78
145 20 39 60 113 87 165 73 139 131 246 293 548 82 153 101 182 120 182 59 0
135 52 167 113 29 57 36 177 14 231 -21 49 -20 62 3 94 30 43 205 389 244 485
92 222 87 447 -12 530 -27 23 -28 27 -34 153 -16 369 -132 576 -436 777 -117
78 -302 172 -443 226 -191 73 -321 113 -623 196 -219 59 -702 141 -1085 184
-259 29 -332 35 -675 56 -115 6 -604 14 -645 9z m625 -124 c186 -10 546 -36
615 -45 19 -3 130 -16 245 -31 316 -39 613 -93 955 -175 129 -31 360 -101 425
-129 11 -4 47 -18 80 -31 33 -12 65 -25 70 -29 6 -4 27 -13 47 -19 20 -7 64
-25 98 -42 33 -16 62 -29 65 -29 6 0 122 -68 185 -109 107 -69 218 -168 166
-148 -21 8 -21 -9 0 -21 9 -5 12 -12 7 -15 -14 -9 -82 25 -83 41 0 10 5 10 21
2 11 -7 23 -10 25 -7 13 13 -94 81 -176 112 -25 10 -59 23 -77 31 -44 20 -63
17 -34 -5 l24 -18 -26 0 c-15 0 -27 3 -27 8 0 5 -7 9 -15 9 -20 0 -36 -32 -24
-51 12 -20 11 -26 -6 -26 -8 0 -15 4 -15 9 0 5 -5 6 -12 2 -7 -5 -8 -3 -3 6 4
7 2 16 -6 20 -17 11 -35 0 -18 -11 12 -8 12 -10 1 -18 -8 -4 -12 -11 -10 -14
1 -4 -5 -15 -14 -27 -15 -17 -16 -20 -2 -20 11 0 13 -6 9 -20 -6 -19 5 -27 19
-13 11 11 36 12 36 2 0 -5 -7 -20 -15 -33 -15 -22 -14 -24 10 -30 29 -7 32
-18 10 -36 -13 -11 -15 -10 -9 6 5 16 4 16 -5 4 -8 -11 -7 -18 4 -26 17 -13
21 -29 5 -19 -20 12 -60 -24 -60 -53 0 -41 -15 -59 -34 -43 -8 7 -18 21 -21
32 -4 10 -15 19 -26 19 -11 0 -17 -4 -14 -10 3 -5 0 -10 -7 -10 -7 -1 -24 -10
-38 -21 l-25 -21 23 -19 c14 -10 20 -23 16 -30 -5 -9 0 -10 19 -5 22 5 25 3
20 -11 -6 -15 -5 -16 9 -3 13 13 14 16 2 23 -18 10 -18 28 0 21 8 -3 17 -1 21
5 9 16 35 13 35 -4 0 -8 -5 -15 -12 -15 -6 0 -4 -6 7 -13 20 -15 5 -34 -17
-21 -7 4 -10 4 -6 -1 4 -4 -1 -19 -12 -32 -15 -20 -17 -29 -9 -45 12 -23 -2
-45 -41 -61 -47 -19 -72 -11 -63 23 4 15 1 18 -16 13 -12 -3 -21 -9 -21 -13 0
-12 -37 -50 -49 -50 -6 0 -11 -5 -11 -11 0 -5 -5 -7 -10 -4 -6 4 -10 3 -9 -2
3 -20 -2 -34 -11 -28 -12 7 -70 -22 -70 -35 0 -12 -22 -9 -32 5 -12 16 -9 28
5 22 7 -3 13 3 14 13 2 19 -22 34 -38 24 -15 -9 -10 6 7 23 8 9 13 22 10 29
-3 8 0 11 10 7 7 -3 14 -1 14 4 0 6 10 15 23 21 12 6 16 11 10 11 -7 1 -13 5
-13 10 0 4 12 8 27 7 14 0 28 5 31 13 3 10 -2 11 -19 6 -19 -5 -21 -4 -9 4 13
9 12 11 -6 11 -11 0 -26 11 -33 24 -8 13 -20 23 -30 21 -9 -2 -20 -4 -25 -4
-6 -1 -5 -6 2 -13 15 -15 16 -52 1 -42 -8 5 -8 1 0 -14 16 -29 14 -42 -6 -42
-13 0 -14 -3 -6 -8 9 -6 6 -11 -8 -21 -15 -9 -19 -9 -14 0 5 7 3 10 -6 7 -8
-3 -13 -10 -12 -16 3 -12 -35 -4 -43 9 -3 5 4 9 15 9 23 0 28 15 10 26 -6 3
-22 -6 -35 -21 -25 -29 -30 -50 -15 -59 5 -4 7 3 4 14 -3 12 0 20 6 20 7 0 9
-5 5 -12 -4 -7 -3 -8 4 -4 9 5 32 -21 32 -38 0 -2 -16 -14 -35 -26 -25 -15
-43 -20 -64 -15 -32 7 -76 48 -67 63 7 12 -30 23 -50 15 -11 -4 -12 -9 -3 -19
6 -8 16 -11 23 -7 6 3 8 3 4 -2 -4 -4 -4 -13 2 -19 5 -7 5 -17 0 -26 -7 -10
-10 -11 -10 -2 0 6 -6 12 -14 12 -7 0 -21 15 -30 33 -8 17 -16 26 -16 19 0 -7
-5 -10 -10 -7 -6 4 -10 3 -9 -2 3 -20 -2 -27 -11 -13 -9 13 -11 13 -21 0 -8
-12 -9 -10 -4 9 5 15 3 21 -3 17 -6 -3 -17 1 -25 9 -20 19 -33 19 -41 -1 -4
-10 -2 -13 7 -9 6 4 3 -1 -7 -9 -13 -10 -15 -16 -7 -16 10 0 11 -3 3 -13 -8
-10 -5 -20 13 -39 13 -14 22 -28 19 -30 -5 -6 6 -7 73 -11 29 -2 56 -6 59 -10
12 -12 44 25 44 50 0 17 4 22 13 17 8 -5 8 -2 -2 9 -9 12 -10 17 -2 17 6 0 15
-8 18 -17 9 -25 36 -44 44 -31 4 6 22 -5 42 -25 20 -19 33 -37 30 -41 -4 -3 1
-6 10 -6 10 0 17 -6 17 -12 0 -7 5 -5 11 5 12 21 29 22 29 2 0 -8 -4 -15 -10
-15 -5 0 -10 -4 -10 -10 0 -5 7 -7 15 -4 8 4 15 1 15 -4 0 -6 -11 -9 -24 -6
-14 2 -37 -1 -53 -7 -31 -12 -33 -12 -32 -2 0 3 -6 10 -15 15 -8 5 -13 15 -10
23 4 8 2 15 -3 15 -6 0 -14 9 -19 20 l-9 21 -24 -22 c-15 -14 -19 -24 -12 -29
16 -9 23 -52 8 -47 -7 2 -12 10 -12 17 0 7 -13 18 -28 23 -43 14 -58 -5 -56
-72 2 -91 1 -95 -16 -81 -13 11 -16 8 -21 -17 -6 -30 -34 -42 -34 -15 0 9 -3
12 -7 9 -3 -4 -12 -2 -19 4 -9 7 -16 4 -28 -12 -8 -12 -13 -26 -10 -31 13 -20
-9 -26 -29 -8 -12 11 -30 19 -42 18 -13 -2 -19 2 -17 12 2 8 0 11 -4 7 -12
-12 -14 -37 -3 -37 6 0 8 -4 4 -10 -3 -5 -13 -6 -22 -3 -11 4 -14 3 -9 -5 4
-7 1 -12 -9 -12 -8 0 -18 7 -21 15 -8 21 -23 9 -40 -31 -16 -38 -45 -45 -76
-17 -17 15 -18 15 -18 0 0 -10 0 -20 1 -24 2 -14 -31 -23 -55 -13 -14 5 -26 6
-26 1 0 -4 -10 -7 -22 -6 -16 1 -22 8 -23 28 -1 19 3 27 14 27 14 1 14 2 -1
14 -22 16 -23 30 -3 22 8 -3 15 0 15 6 0 6 3 8 7 4 11 -11 34 76 23 89 -6 7
-1 16 13 25 l22 13 -28 8 c-35 10 -60 1 -53 -18 4 -9 1 -12 -7 -7 -6 4 -3 -3
8 -15 15 -17 16 -24 6 -30 -7 -5 -12 -11 -12 -15 3 -24 -2 -34 -21 -39 -23 -7
-44 13 -27 24 15 9 -12 49 -33 49 -9 0 -24 7 -33 16 -15 16 -18 15 -45 -4 -15
-12 -38 -19 -50 -17 -11 2 -29 -4 -39 -14 -11 -11 -24 -15 -37 -11 -27 10 -50
-15 -34 -36 11 -13 15 -13 30 1 21 19 41 19 66 0 10 -8 29 -15 41 -15 42 0 52
-63 12 -75 -19 -6 -52 6 -50 18 4 28 -2 37 -21 37 -19 0 -20 2 -8 11 13 9 13
10 0 6 -8 -2 -14 -12 -12 -22 3 -13 -1 -16 -16 -13 -16 4 -20 1 -17 -13 4 -21
-15 -16 -34 9 -9 13 -22 16 -52 14 -21 -2 -39 -8 -39 -14 0 -5 5 -6 10 -3 6 3
10 1 10 -4 0 -6 9 -20 20 -31 11 -11 20 -15 20 -9 0 6 7 8 16 5 12 -4 15 -2
10 9 -4 12 -2 13 14 2 23 -13 26 -27 8 -28 -8 0 -7 -3 2 -6 8 -4 21 -12 28
-20 11 -11 11 -13 0 -13 -7 0 -19 -10 -26 -21 -11 -17 -11 -24 -1 -33 9 -8 10
-8 4 3 -6 10 -4 12 6 5 8 -5 46 -10 84 -10 129 -3 128 -3 121 -19 -3 -8 0 -15
7 -16 23 -1 -48 -19 -120 -29 -524 -72 -1535 -92 -2123 -40 -313 28 -359 33
-520 60 -30 5 -75 12 -100 15 -25 3 -56 10 -70 15 -24 8 -74 18 -285 55 -49 9
-151 31 -225 50 -74 18 -163 39 -197 45 -34 6 -75 17 -90 25 -15 8 -35 15 -44
15 -23 0 -280 83 -438 141 -112 42 -268 110 -343 150 -10 5 -25 9 -33 9 -9 0
-14 4 -11 8 2 4 -4 14 -16 21 -11 7 -17 8 -14 2 4 -7 1 -8 -8 -5 -9 3 -16 10
-16 15 0 5 -6 9 -12 9 -14 1 -58 34 -58 44 0 4 13 0 30 -9 16 -8 39 -15 52
-15 13 0 35 -6 49 -14 15 -7 54 -23 87 -35 57 -19 217 -84 251 -101 14 -7 59
-19 126 -35 11 -3 56 -16 100 -29 198 -60 289 -85 415 -115 74 -17 200 -47
280 -65 80 -19 172 -39 205 -45 172 -29 350 -52 435 -57 52 -3 101 -9 110 -13
18 -10 145 -28 248 -36 59 -4 74 -2 78 10 8 20 31 19 42 -1 6 -11 33 -19 88
-25 87 -10 114 -5 114 18 0 8 8 17 18 20 14 3 18 14 17 51 0 45 -1 47 -27 44
-16 -2 -28 1 -28 8 0 6 -6 8 -12 4 -7 -4 -10 -3 -5 1 4 5 15 10 25 11 9 1 29
4 44 7 15 3 31 1 34 -5 4 -7 9 -7 13 1 5 7 20 9 39 5 17 -4 29 -10 27 -15 -3
-4 11 -11 32 -16 37 -7 47 -9 58 -12 3 0 -4 -10 -15 -21 -11 -11 -20 -28 -20
-39 0 -14 7 -18 32 -17 28 1 36 8 55 46 33 64 31 73 -15 65 -32 -5 -41 -2 -61
19 -13 14 -27 23 -31 21 -10 -6 -32 20 -29 37 4 34 -12 48 -31 28 -11 -11 -62
-30 -81 -30 -11 0 -18 -3 -16 -7 3 -5 -14 -8 -36 -8 -32 0 -47 6 -64 25 -22
24 -22 24 -23 4 0 -30 -25 -48 -56 -40 -33 9 -64 -1 -64 -20 0 -8 5 -14 11
-14 5 0 7 -4 4 -10 -3 -5 3 -10 15 -10 31 0 36 -27 9 -49 -17 -14 -34 -17 -68
-13 -53 5 -74 19 -66 41 5 12 3 13 -5 5 -15 -15 -50 -6 -44 10 7 17 69 12 89
-8 19 -19 34 -17 49 6 10 16 -6 41 -29 45 -6 1 -18 5 -27 8 -10 4 -18 3 -18
-3 0 -10 -31 -21 -80 -28 -14 -1 -20 -1 -13 2 8 4 7 14 -5 37 -23 43 -25 44
-85 37 -30 -4 -55 -3 -58 2 -4 6 -13 7 -25 1 -11 -5 -32 -8 -47 -7 -23 2 -27
0 -23 -13 4 -10 2 -14 -8 -10 -8 3 -22 -5 -32 -18 l-18 -25 -13 23 c-7 12 -12
16 -13 10 0 -7 -5 -13 -11 -13 -6 0 -9 9 -6 20 4 15 0 20 -14 20 -10 0 -19 7
-19 15 0 16 65 85 80 85 6 0 10 7 10 15 0 8 7 16 15 16 28 3 33 4 41 12 4 4
-3 19 -17 33 -21 23 -25 24 -36 9 -6 -10 -9 -24 -6 -32 7 -18 -13 -33 -44 -33
-13 0 -23 -4 -23 -10 0 -19 -29 -10 -42 13 -7 12 -12 24 -11 27 1 3 -25 5 -57
5 -50 0 -57 -2 -55 -18 2 -9 6 -21 9 -26 3 -4 -8 -8 -24 -9 -34 -1 -36 4 -15
32 22 29 18 37 -10 26 -32 -12 -43 5 -19 31 16 17 16 22 4 29 -8 5 -23 7 -32
4 -10 -3 -18 -1 -18 5 0 17 -20 13 -27 -4 -3 -9 2 -24 11 -34 18 -19 22 -46 6
-36 -6 4 -8 10 -6 14 4 7 -18 7 -82 2 -7 -1 -10 -6 -7 -11 4 -6 10 -8 14 -6
10 6 42 -60 34 -68 -13 -12 -31 -5 -29 11 1 19 -40 28 -50 12 -6 -11 -34 15
-50 46 -14 28 -5 48 16 35 17 -11 60 -13 60 -4 0 10 -44 43 -59 44 -8 0 -20
-8 -27 -17 -13 -17 -14 -17 -8 1 6 15 3 17 -14 12 -14 -5 -27 -1 -41 13 -12
12 -26 21 -32 21 -7 0 -9 9 -6 21 3 11 1 19 -5 17 -5 -2 -9 -7 -8 -12 2 -9
-19 -26 -32 -26 -4 0 -10 9 -13 20 -7 21 -35 28 -35 8 0 -6 -3 -9 -6 -6 -10
11 19 46 34 40 11 -4 13 0 7 17 -6 21 -4 22 56 19 52 -3 62 0 64 14 2 10 -2
16 -7 15 -11 -2 -14 9 -22 76 -5 35 -3 37 18 34 13 -1 31 -9 40 -16 13 -11 19
-9 41 15 14 15 24 28 23 30 -2 1 -34 5 -72 8 -52 5 -76 12 -93 28 -22 21 -32
45 -14 34 15 -10 41 28 31 44 -8 13 -10 12 -10 -3 0 -10 -4 -15 -10 -12 -5 3
-10 13 -10 21 0 10 13 14 46 14 40 0 45 -2 34 -15 -7 -8 -16 -12 -21 -9 -5 3
-6 -2 -3 -11 5 -12 9 -13 20 -4 8 6 14 8 14 3 0 -4 5 -3 12 4 7 7 23 12 38 12
14 0 32 4 39 9 9 6 22 6 32 0 12 -6 28 -5 46 3 15 6 31 11 36 10 4 -1 7 5 7
14 0 10 -6 14 -14 11 -8 -3 -17 -3 -20 1 -12 11 -46 12 -46 1 0 -6 -9 -8 -22
-3 -13 4 -35 7 -50 6 -14 -1 -34 6 -44 15 -10 10 -21 18 -25 18 -5 0 -18 8
-29 18 -24 20 -17 41 11 32 12 -4 19 -2 20 7 0 7 4 3 9 -9 6 -13 18 -23 30
-23 11 0 23 0 28 -1 4 0 9 10 12 22 4 17 13 23 34 24 15 1 37 12 49 23 21 21
21 22 2 23 -11 1 -35 2 -52 4 -19 1 -33 -2 -34 -9 -1 -6 -2 -15 -4 -21 -1 -5
-3 -14 -3 -18 -1 -5 -9 -1 -17 7 -14 14 -14 18 1 41 9 14 12 25 6 25 -6 0 -15
-6 -19 -13 -4 -7 -29 -24 -55 -36 -27 -13 -48 -27 -48 -33 0 -6 -7 -7 -16 -4
-8 3 -12 2 -9 -4 3 -6 -1 -13 -10 -17 -10 -3 -21 0 -25 7 -4 7 -15 10 -24 7
-20 -8 -20 3 -2 29 12 15 17 16 27 7 9 -9 16 -10 26 -2 9 9 13 8 13 0 0 -7 5
-9 10 -6 6 3 10 13 10 21 0 8 -4 12 -10 9 -5 -3 -10 -1 -10 5 0 7 -6 10 -12 7
-52 -19 -56 -18 -51 5 8 31 23 39 47 26 15 -8 22 -7 31 6 7 9 17 16 23 16 24
0 30 34 12 67 -9 18 -20 30 -24 26 -3 -3 -6 1 -6 11 0 14 -3 15 -22 4 -31 -18
-119 -17 -116 0 2 7 8 13 13 14 12 1 36 34 33 45 -4 12 45 58 59 55 20 -4 15
25 -4 33 -10 4 -30 7 -45 6 -19 -2 -28 2 -28 13 0 19 59 25 111 12 29 -8 40
-6 53 7 9 8 16 20 16 25 0 17 29 22 43 7 8 -7 31 -17 51 -20 20 -4 39 -11 42
-16 3 -5 10 -9 15 -9 6 0 8 4 5 9 -3 5 1 14 9 21 19 15 9 37 -20 44 -14 4 -29
15 -35 27 -10 18 -10 19 10 7 17 -11 22 -11 29 1 7 11 13 10 31 -7 12 -11 19
-25 15 -31 -3 -6 1 -14 10 -17 11 -4 15 -14 11 -26 -2 -11 -2 -17 1 -14 4 3
13 0 21 -7 13 -10 14 -9 8 1 -4 7 -1 15 8 18 9 3 16 13 16 21 0 11 7 13 26 9
17 -5 23 -3 19 4 -10 16 10 12 37 -9 18 -14 28 -17 39 -9 11 8 11 9 -3 4 -10
-3 -20 -1 -23 5 -4 5 -3 9 2 8 27 -5 35 1 23 16 -7 9 -21 13 -31 10 -12 -4
-19 1 -24 15 -7 22 -5 21 -58 25 -21 1 -46 10 -55 18 -10 9 -29 16 -42 15 -14
-1 -38 -1 -54 0 -28 2 -29 3 -11 16 11 8 22 13 26 11 23 -15 115 -22 159 -13
18 4 29 -1 39 -15 14 -20 14 -20 23 3 10 26 -8 54 -28 46 -7 -3 -16 -1 -19 5
-4 5 -11 7 -16 4 -14 -9 -11 8 7 33 11 16 21 21 39 16 16 -4 33 2 53 16 20 15
40 21 59 18 17 -2 35 2 42 9 21 23 -33 21 -254 -11 -82 -12 -111 -20 -127 -34
-12 -10 -18 -11 -18 -4 0 14 -73 16 -98 3 -9 -6 -76 -19 -148 -30 -72 -11
-157 -29 -190 -40 -33 -10 -93 -24 -133 -30 -40 -6 -81 -15 -90 -20 -9 -5 -35
-12 -58 -16 -24 -4 -45 -11 -49 -16 -3 -5 -26 -9 -52 -9 -26 0 -73 -11 -106
-25 -32 -13 -82 -29 -110 -36 -28 -6 -60 -15 -71 -20 -11 -4 -60 -20 -110 -34
-49 -14 -97 -30 -105 -34 -9 -5 -30 -12 -48 -15 -17 -4 -34 -12 -37 -17 -4 -5
-14 -9 -24 -9 -10 0 -58 -21 -107 -46 -84 -43 -87 -44 -58 -15 61 58 255 166
406 226 119 48 399 140 503 167 84 21 293 65 460 97 55 11 120 24 145 30 52
12 462 65 625 80 502 46 1090 63 1500 41z m2875 -1329 c0 -5 3 -16 6 -24 3 -9
-13 -27 -45 -51 -28 -20 -55 -36 -60 -36 -5 0 -11 -3 -13 -7 -9 -21 -156 -98
-263 -138 -54 -20 -64 -21 -99 -9 -21 8 -43 11 -50 8 -6 -3 -1 3 12 14 31 28
28 35 -8 17 -30 -15 -31 -31 -6 -64 8 -11 8 -13 0 -8 -7 4 -14 -1 -17 -12 -3
-13 -20 -23 -48 -31 -24 -6 -60 -17 -79 -24 -50 -20 -182 -56 -202 -56 -10 0
-18 4 -18 8 0 14 25 62 32 62 3 0 4 9 1 20 -4 15 0 20 16 20 12 0 21 -6 21
-16 0 -8 4 -13 8 -10 5 3 16 -3 24 -14 12 -14 25 -17 50 -13 42 6 56 19 29 28
-12 3 -21 11 -21 17 0 6 7 7 18 3 9 -4 25 -7 35 -7 9 0 17 -5 17 -11 1 -7 9
-2 20 11 13 16 26 21 42 17 13 -3 30 -1 38 4 12 8 10 14 -13 34 l-28 24 25 16
c14 10 32 17 40 17 8 0 31 11 51 25 26 17 45 23 64 19 23 -5 29 -2 34 15 3 14
13 21 30 21 14 0 29 5 32 10 4 6 24 18 46 27 21 8 39 21 39 28 0 10 7 11 29 5
21 -6 35 -4 51 7 11 8 27 16 33 17 7 2 32 12 57 24 50 23 70 27 70 13z m-6970
-207 c0 -8 -5 -25 -11 -37 -18 -32 -12 -162 10 -242 11 -38 17 -74 14 -79 -3
-5 -1 -6 6 -2 7 5 17 -6 27 -31 9 -21 31 -69 49 -108 18 -38 38 -87 45 -108 7
-22 18 -51 26 -65 8 -15 14 -32 14 -38 0 -5 9 -29 20 -51 22 -47 30 -104 15
-110 -25 -8 -213 421 -256 585 -32 121 -13 302 31 302 6 0 10 -7 10 -16z
m7385 -49 c38 -76 22 -256 -35 -380 -11 -24 -20 -46 -20 -50 0 -8 -123 -256
-178 -359 -26 -48 -52 -87 -57 -85 -19 7 -7 55 39 151 25 54 46 100 46 102 0
3 15 38 34 78 42 91 82 208 109 316 18 73 19 91 9 141 -7 31 -12 74 -12 95 0
33 3 37 22 34 15 -2 30 -17 43 -43z m-7165 -178 c76 -66 259 -182 385 -245
166 -82 501 -205 620 -228 25 -4 35 -11 35 -25 0 -24 -13 -24 -111 1 -72 19
-139 42 -329 113 -98 37 -348 168 -465 245 -110 71 -265 209 -265 235 0 9 56
-32 130 -96z m5816 70 c1 -10 -6 -23 -16 -30 -18 -10 -18 -13 -3 -29 14 -16
14 -18 -8 -26 -13 -5 -49 -15 -79 -22 -30 -7 -75 -19 -100 -26 -54 -16 -253
-54 -282 -54 -16 0 -18 3 -9 14 18 21 0 26 -50 14 -24 -5 -50 -11 -58 -12 -8
-2 -22 -13 -33 -25 -16 -21 -23 -20 -19 2 1 5 -6 6 -16 3 -55 -16 -90 -17 -96
-3 -4 10 1 13 20 9 17 -3 24 -1 20 6 -4 5 -1 22 7 36 l13 26 18 -24 c14 -18
23 -22 39 -17 12 5 53 14 91 20 39 7 79 14 91 16 11 3 32 16 45 29 14 14 37
26 51 28 14 2 33 10 42 18 10 7 36 14 59 15 59 2 140 16 153 26 6 5 25 11 43
13 17 2 35 6 38 10 12 12 36 1 39 -17z m-4503 -388 l19 -27 -26 -66 c-15 -36
-32 -92 -38 -124 -16 -85 0 -300 42 -577 6 -38 11 -78 13 -89 1 -13 -5 -19
-24 -21 -25 -3 -27 2 -62 113 -34 111 -60 211 -89 347 -7 33 -12 121 -13 195
0 121 2 140 24 187 23 51 48 76 86 86 33 8 47 3 68 -24z m5162 1 c-3 -5 -10
-10 -15 -10 -5 0 -33 -11 -62 -24 -144 -64 -373 -146 -543 -192 -49 -13 -93
-24 -97 -24 -5 0 -8 11 -8 24 0 25 -7 22 195 72 139 35 490 145 503 159 10 9
33 5 27 -5z m-900 -50 c43 -27 73 -91 86 -186 17 -121 -6 -252 -99 -569 -16
-55 -33 -116 -38 -135 -8 -30 -14 -35 -39 -35 -24 0 -30 4 -28 20 1 17 19 137
63 437 13 86 13 243 0 288 -5 20 -21 51 -35 70 -14 19 -25 43 -25 54 1 34 38
72 74 75 5 1 23 -8 41 -19z m-2060 -182 c39 -35 49 -112 40 -308 -3 -91 -14
-235 -23 -320 l-17 -155 -45 0 -45 0 -17 175 c-9 96 -20 259 -24 361 -6 169
-5 188 11 217 32 54 79 65 120 30z m-2040 -34 c432 -80 1386 -178 1680 -173
l130 2 3 -43 3 -43 -193 6 c-226 7 -563 24 -628 32 -316 37 -409 50 -550 76
-302 55 -534 110 -559 134 -17 17 -4 38 18 30 9 -4 52 -13 96 -21z m3963 -26
c-3 -21 -14 -25 -113 -45 -323 -64 -576 -100 -955 -133 -129 -11 -255 -22
-280 -25 -68 -6 -233 -15 -340 -17 l-95 -3 -6 38 c-4 25 -2 40 5 42 6 2 97 6
201 9 178 6 410 21 690 47 155 14 643 76 770 98 28 5 67 9 88 10 34 1 38 -1
35 -21z m-5349 -181 c13 -34 41 -100 63 -146 38 -80 40 -85 22 -98 -26 -19
-84 -16 -120 6 -64 39 -96 176 -57 239 25 41 45 62 57 62 6 0 22 -28 35 -63z
m6761 -14 c25 -39 30 -57 30 -110 0 -37 -6 -76 -15 -93 -34 -65 -108 -90 -156
-51 -22 18 -23 21 -9 46 8 15 16 22 18 16 2 -6 8 -8 13 -5 6 4 6 11 -1 19 -9
11 -8 21 4 42 8 15 28 63 43 105 15 43 31 78 36 78 4 0 21 -21 37 -47z m-6238
-62 c22 -92 98 -244 165 -328 55 -71 147 -155 220 -203 23 -15 64 -51 90 -80
25 -28 63 -62 82 -74 l35 -23 27 -169 c15 -93 39 -252 54 -354 31 -223 66
-446 106 -675 16 -93 34 -197 40 -230 71 -430 72 -438 14 -305 -77 176 -78
178 -686 1390 -323 642 -419 839 -419 852 0 4 16 15 36 24 54 26 136 111 175
181 19 35 36 63 39 63 3 0 12 -31 22 -69z m5708 -197 c26 -56 72 -108 129
-144 l23 -15 -20 -35 c-24 -44 -143 -275 -367 -716 -163 -320 -209 -410 -290
-559 -18 -33 -52 -96 -76 -140 -109 -203 -338 -671 -434 -890 -57 -130 -70
-153 -80 -143 -6 6 38 302 65 436 19 98 37 197 65 377 33 209 64 387 100 575
13 69 31 172 40 230 9 58 23 143 31 190 8 47 19 114 25 150 5 36 12 74 14 85
4 21 47 44 198 105 246 101 421 297 522 585 7 19 8 19 17 -5 6 -14 23 -52 38
-86z m-6026 -166 c29 -62 102 -211 161 -331 58 -120 105 -220 103 -223 -2 -2
-40 65 -84 148 -43 83 -121 230 -171 327 -51 97 -93 179 -93 184 0 4 7 7 15 7
9 0 36 -44 69 -112z m2036 87 c0 -22 56 -139 96 -202 140 -220 430 -419 699
-478 l76 -17 -7 -37 c-4 -20 -25 -97 -46 -171 -22 -74 -43 -148 -48 -165 -4
-16 -33 -118 -64 -225 -31 -107 -63 -217 -71 -245 -39 -136 -79 -278 -99 -355
-41 -150 -64 -233 -91 -325 -14 -49 -32 -112 -40 -140 -51 -191 -76 -281 -100
-360 -15 -49 -34 -116 -43 -147 -9 -32 -20 -58 -24 -58 -5 0 -13 12 -19 28 -9
25 -101 251 -120 297 -5 11 -27 67 -49 125 -22 58 -49 125 -59 150 -18 42 -34
84 -141 365 -23 61 -45 119 -50 130 -4 11 -22 56 -38 100 -17 44 -51 132 -76
196 -25 65 -59 152 -75 195 -57 153 -163 430 -198 519 -33 84 -79 202 -124
319 -28 72 -26 76 29 76 92 0 267 62 369 131 114 77 233 200 277 287 16 31 36
36 36 7z m4307 -67 c-14 -29 -53 -102 -85 -163 -32 -60 -107 -202 -166 -315
-60 -113 -112 -209 -116 -215 -4 -5 -42 -77 -85 -160 -43 -82 -87 -166 -98
-185 -11 -19 -27 -48 -35 -63 -8 -16 -16 -26 -18 -24 -2 2 69 149 160 327 90
177 226 448 302 601 123 247 140 277 153 264 13 -13 12 -21 -12 -67z m-2085
-53 c63 -96 124 -157 223 -221 105 -68 172 -97 290 -124 60 -14 94 -27 92 -34
-3 -6 -13 -31 -22 -56 -49 -129 -249 -637 -265 -675 -26 -59 -90 -228 -90
-237 0 -5 -9 -28 -20 -50 -11 -23 -20 -45 -20 -50 0 -5 -8 -27 -19 -51 -10
-23 -42 -103 -70 -177 -29 -74 -56 -144 -60 -155 -14 -34 -58 -148 -71 -185
-7 -19 -19 -48 -25 -65 -17 -40 -92 -227 -117 -290 -11 -27 -30 -79 -43 -115
-14 -36 -51 -132 -83 -214 -56 -144 -59 -150 -88 -153 l-30 -4 -43 213 c-24
117 -50 247 -57 288 -8 41 -19 93 -24 115 -5 22 -16 78 -25 125 -8 47 -20 105
-26 130 -38 174 -224 1111 -262 1323 -10 56 -11 80 -3 82 6 2 40 12 76 21 280
75 518 265 649 519 23 43 41 83 41 86 0 4 5 20 11 36 10 26 12 27 23 9 6 -11
32 -52 58 -91z m-3042 -52 c0 -81 -19 -119 -81 -160 -36 -24 -53 -28 -108 -28
-91 0 -152 31 -180 89 -18 36 -29 116 -17 116 2 0 25 -9 51 -21 73 -32 167
-30 239 5 31 15 62 37 69 47 20 33 27 21 27 -48z m1838 -80 c15 -27 64 -38
135 -30 81 8 105 23 115 71 l9 41 17 -38 c16 -36 16 -41 1 -64 -18 -27 -72
-54 -147 -74 -56 -15 -133 -1 -180 33 -26 18 -29 26 -25 55 3 18 16 48 29 65
l23 33 6 -35 c3 -19 11 -45 17 -57z m2070 -4 c39 -11 166 -8 210 6 20 7 22 4
22 -31 -1 -72 -46 -118 -134 -136 -98 -21 -196 15 -232 84 -15 30 -21 118 -9
138 3 5 27 -4 55 -20 27 -16 67 -34 88 -41z m3988 -130 c35 -21 41 -33 24 -44
-21 -13 4 -27 38 -22 60 10 68 -1 71 -97 4 -166 -27 -267 -132 -425 -39 -58
-74 -108 -77 -111 -3 -3 -20 -25 -37 -50 -102 -149 -375 -370 -580 -468 -68
-32 -87 -37 -148 -37 -85 1 -133 18 -115 40 13 16 0 21 -16 6 -5 -5 -37 -11
-71 -13 -75 -4 -75 -11 5 142 30 58 78 150 107 205 29 55 79 152 111 215 115
228 203 359 321 477 145 145 254 202 387 203 62 0 86 -4 112 -21z m-5756 -15
c0 -72 -106 -144 -211 -144 -49 0 -125 26 -149 50 -22 22 -54 80 -47 86 2 3
30 -2 63 -11 32 -8 87 -15 122 -15 62 0 167 23 187 41 15 14 35 10 35 -7z
m-2127 -54 c9 -25 36 -99 61 -165 25 -65 46 -123 46 -127 0 -5 8 -27 19 -51
10 -23 24 -58 32 -77 7 -19 23 -57 35 -85 12 -27 61 -151 109 -275 90 -236 96
-250 113 -290 6 -14 37 -92 68 -175 31 -82 62 -163 69 -180 7 -16 23 -57 35
-90 12 -33 28 -73 35 -90 35 -81 100 -247 120 -305 12 -36 31 -85 43 -110 11
-25 30 -72 42 -105 13 -33 27 -64 31 -70 4 -5 11 -26 17 -45 5 -19 13 -44 18
-54 6 -16 4 -18 -10 -13 -14 6 -17 3 -12 -9 4 -9 1 -14 -5 -12 -6 2 -27 44
-46 93 -19 50 -41 104 -49 122 -8 17 -14 35 -14 39 0 7 -52 135 -86 211 -8 17
-14 35 -14 40 0 10 -62 166 -92 233 -9 19 -42 100 -73 180 -31 80 -67 172 -80
205 -12 33 -33 87 -46 120 -12 33 -32 83 -44 110 -13 28 -44 106 -70 175 -26
69 -62 161 -80 205 -17 44 -37 94 -43 110 -21 60 -64 171 -77 200 -7 17 -18
48 -25 70 -7 22 -16 45 -20 50 -4 6 -22 52 -40 103 -31 90 -31 94 -14 107 23
17 28 12 47 -45z m-166 -4 c0 -1 13 -100 27 -221 15 -121 33 -258 41 -305 7
-47 23 -155 35 -240 11 -85 27 -189 36 -230 8 -41 24 -145 35 -230 39 -293 49
-366 83 -575 19 -115 37 -226 39 -245 3 -19 8 -43 12 -54 7 -16 5 -17 -11 -8
-40 21 -52 48 -72 172 -12 69 -24 152 -28 185 -3 33 -10 76 -16 95 -5 19 -14
69 -18 110 -4 41 -13 93 -19 116 -6 23 -22 119 -35 215 -14 96 -34 233 -45
304 -11 72 -27 177 -36 235 -8 58 -22 139 -30 180 -17 91 -61 373 -70 452 l-7
57 38 -6 c22 -3 40 -6 41 -7z m3928 -9 c17 -13 16 -18 -23 -111 -23 -53 -42
-99 -42 -102 0 -3 -7 -21 -15 -40 -33 -75 -43 -101 -60 -154 -17 -54 -32 -94
-94 -239 -17 -40 -31 -77 -31 -82 0 -5 -11 -32 -24 -61 -13 -29 -34 -80 -46
-113 -12 -33 -26 -70 -31 -82 -5 -13 -13 -33 -18 -45 -5 -13 -18 -44 -30 -70
-12 -26 -21 -52 -21 -58 0 -6 -4 -18 -10 -28 -5 -9 -39 -93 -76 -187 -36 -93
-74 -188 -84 -210 -10 -23 -22 -53 -25 -68 -4 -15 -11 -30 -16 -33 -5 -3 -9
-12 -9 -20 0 -8 -8 -33 -19 -57 -10 -23 -33 -80 -51 -127 -18 -47 -37 -89 -42
-94 -4 -6 -8 -16 -8 -23 0 -7 -13 -42 -30 -78 -16 -36 -30 -72 -30 -80 0 -26
-17 -16 -23 13 -5 23 16 105 42 167 5 11 15 38 24 60 21 55 56 143 74 185 8
19 18 44 23 55 11 30 26 67 38 95 6 14 25 63 43 110 18 47 76 196 131 331 54
135 98 249 98 252 0 4 11 30 24 59 30 68 96 233 96 243 0 5 70 176 119 290 5
11 15 36 22 55 6 19 20 53 30 75 9 22 28 73 40 113 13 39 26 72 29 72 4 0 14
-6 25 -13z m191 -62 c-3 -8 -8 -31 -11 -52 -26 -157 -77 -434 -85 -459 -6 -17
-10 -42 -10 -56 0 -28 -62 -400 -119 -713 -12 -60 -34 -205 -51 -321 -17 -117
-39 -260 -50 -320 -11 -59 -20 -120 -20 -136 0 -17 -10 -37 -27 -52 -35 -32
-43 -24 -14 14 16 22 19 35 12 48 -11 21 -2 110 35 322 22 124 53 322 105 670
6 41 17 113 25 160 29 179 107 676 139 885 5 29 8 31 41 27 24 -3 34 -9 30
-17z m-1873 -131 c4 -27 20 -116 36 -199 16 -82 32 -172 36 -200 4 -27 16 -88
27 -135 11 -47 23 -105 28 -130 4 -25 22 -112 39 -195 35 -166 91 -436 98
-475 4 -24 18 -97 64 -330 11 -58 27 -138 36 -178 15 -74 12 -106 -6 -61 -7
18 -8 8 -5 -36 l4 -60 -25 95 c-14 52 -33 129 -41 170 -9 41 -20 95 -25 120
-5 25 -11 56 -12 70 -2 14 -8 34 -14 45 -6 11 -13 43 -17 70 -3 28 -28 156
-56 285 -27 129 -65 316 -84 415 -20 99 -45 223 -56 275 -21 98 -34 162 -70
359 -11 63 -23 118 -26 123 -6 9 35 28 51 24 5 -1 13 -25 18 -52z m-264 37
c11 -7 5 -42 -38 -197 -52 -187 -62 -221 -87 -299 -7 -22 -20 -65 -28 -95 -9
-30 -27 -95 -41 -145 -14 -49 -30 -106 -35 -125 -34 -125 -63 -228 -70 -245
-4 -11 -23 -74 -40 -140 -18 -66 -36 -133 -41 -150 -5 -16 -23 -79 -40 -140
-35 -127 -36 -130 -85 -290 -21 -66 -40 -122 -43 -125 -3 -3 -7 -16 -8 -30 0
-14 -18 -86 -38 -160 -21 -74 -40 -148 -42 -163 -5 -25 -9 -28 -32 -22 -14 4
-28 8 -29 10 -5 5 88 327 98 340 4 6 10 24 13 40 3 17 12 55 20 85 8 30 26 98
40 150 23 85 38 139 82 290 7 25 25 90 39 145 15 55 36 129 46 165 61 204 93
313 111 375 10 39 26 93 34 120 8 28 30 106 49 175 19 69 53 188 75 264 23 76
41 147 41 158 0 19 25 24 49 9z m-1825 -149 c61 -162 135 -350 151 -387 7 -16
30 -73 50 -125 52 -136 84 -217 110 -280 12 -30 28 -73 35 -95 7 -22 16 -44
21 -50 5 -5 9 -15 9 -22 0 -7 11 -36 24 -65 22 -51 54 -131 181 -458 31 -80
63 -158 70 -175 15 -34 96 -242 126 -325 12 -30 27 -70 35 -89 8 -18 14 -35
12 -36 -5 -6 -110 22 -208 55 -98 33 -234 97 -330 155 l-56 34 -18 123 c-10
68 -24 159 -31 203 -20 117 -42 273 -60 415 -9 69 -20 148 -26 176 -5 27 -16
95 -23 150 -51 369 -84 590 -117 787 -31 192 -25 194 45 9z m3787 42 c-6 -22
-28 -163 -50 -314 -22 -151 -54 -363 -71 -470 -17 -107 -35 -222 -40 -255 -5
-33 -16 -105 -24 -160 -9 -55 -21 -131 -26 -170 -6 -38 -26 -164 -45 -280 -19
-115 -37 -236 -41 -268 -6 -48 -12 -61 -34 -77 -16 -11 -31 -20 -34 -20 -4 0
-23 -10 -44 -23 -43 -27 -170 -77 -194 -77 -9 0 -19 -4 -22 -9 -3 -5 -23 -12
-43 -16 -21 -4 -42 -10 -48 -15 -15 -11 -155 -43 -162 -37 -5 5 53 159 167
442 49 123 66 165 81 200 40 98 179 455 179 461 0 3 8 24 19 47 19 42 50 119
78 192 9 22 21 54 28 70 7 17 30 73 50 125 20 52 57 147 82 210 24 63 57 147
73 185 26 65 84 210 110 279 15 41 23 26 11 -20z m-1803 -74 c23 -126 142
-716 173 -865 17 -77 36 -171 44 -210 16 -76 46 -219 94 -440 17 -77 40 -187
51 -245 12 -58 25 -121 30 -140 5 -19 17 -78 26 -130 9 -52 20 -110 24 -128 6
-23 5 -34 -3 -37 -7 -2 -118 -9 -247 -15 -382 -17 -920 18 -920 59 0 16 12 57
105 391 25 91 52 188 60 215 8 28 32 113 55 190 23 77 54 187 70 245 38 141
74 266 109 380 26 82 54 180 102 355 6 22 22 74 35 115 12 41 37 129 54 195
18 66 34 126 36 133 3 9 18 12 46 10 l42 -3 14 -75z m4701 -1025 c172 -80 311
-273 231 -322 -16 -10 -24 -4 -63 45 -97 122 -154 169 -262 218 -30 14 -55 29
-55 34 0 18 44 50 69 50 14 0 50 -11 80 -25z m-99 -176 c36 -20 86 -59 112
-86 44 -46 46 -50 45 -103 -2 -65 -3 -65 -110 -16 -40 19 -92 40 -117 47 -25
7 -56 19 -70 26 -14 7 -30 13 -37 13 -22 0 -25 21 -7 37 17 14 17 14 -6 1 -14
-8 -31 -27 -38 -42 -14 -27 -27 -28 -88 -5 -28 10 -37 57 -18 87 22 33 85 71
135 81 70 13 128 2 199 -40z m-3698 -747 c-16 -42 -37 -99 -47 -127 -23 -63
-27 -67 -59 -63 -24 3 -25 5 -13 28 7 14 21 48 31 75 9 28 24 62 32 77 8 15
21 44 28 65 8 21 20 52 26 68 l13 30 10 -38 c8 -33 5 -49 -21 -115z m-1331
-663 c100 -2 162 -9 154 -18 -4 -3 -37 -4 -73 -2 -37 1 -63 -1 -59 -5 4 -4 31
-9 60 -10 29 -1 64 -2 80 -3 l27 -1 -20 -20 c-18 -18 -33 -21 -131 -21 -107 0
-179 13 -179 31 0 5 7 7 15 4 8 -4 15 -1 15 5 0 6 -3 10 -7 10 -25 -4 -53 3
-53 12 0 7 11 9 29 6 21 -4 31 -2 35 9 3 8 10 13 14 10 5 -3 46 -6 93 -7z
m2169 -248 c0 -9 38 -94 101 -227 16 -34 29 -66 29 -72 0 -6 3 -12 8 -14 4 -1
30 -48 57 -103 28 -55 52 -102 55 -105 3 -3 25 -43 49 -90 24 -47 80 -148 124
-225 77 -135 109 -193 180 -327 19 -35 54 -99 79 -143 25 -44 60 -107 78 -140
18 -33 44 -80 58 -105 14 -25 58 -110 100 -190 41 -80 104 -199 141 -265 36
-66 92 -174 124 -240 32 -66 73 -149 92 -185 91 -171 217 -432 211 -438 -4 -3
-10 -2 -14 4 -4 5 -32 20 -62 33 -85 36 -250 41 -350 11 -177 -52 -320 -166
-449 -355 -136 -199 -203 -428 -214 -735 -4 -102 -21 -113 -47 -30 -9 30 -27
79 -40 108 -21 48 -21 54 -7 70 58 64 60 174 6 253 -13 18 -16 36 -12 66 8 62
-4 107 -40 151 l-33 39 -27 274 c-15 151 -32 303 -37 339 -5 36 -14 112 -20
170 -7 58 -16 143 -21 190 -5 47 -14 126 -19 175 -5 50 -16 149 -25 220 -8 72
-19 177 -25 235 -6 58 -15 139 -20 180 -12 102 -16 136 -40 345 -11 99 -24
216 -30 260 -16 135 -49 431 -65 600 -9 88 -18 172 -21 188 -4 20 -1 29 13 34
10 4 33 17 52 30 35 24 61 30 61 14z m-3593 -32 c6 -6 8 -24 3 -47 -4 -20 -13
-91 -19 -157 -22 -229 -50 -490 -71 -665 -30 -239 -91 -811 -120 -1120 -5 -58
-17 -166 -25 -240 -20 -168 -31 -280 -45 -440 -6 -69 -15 -141 -21 -160 -5
-19 -9 -66 -10 -105 0 -38 -6 -106 -12 -149 -12 -79 -12 -80 -44 -83 -31 -4
-31 -3 -27 34 2 21 11 108 19 193 8 85 24 232 35 325 10 94 29 258 40 365 11
107 27 251 36 320 8 69 26 222 39 340 14 118 32 262 40 320 8 58 26 213 40
345 14 132 34 314 45 405 11 91 23 199 26 240 4 41 11 81 17 88 6 7 9 43 8 81
-3 104 13 143 46 110z m131 -45 c20 -9 60 -23 87 -31 28 -8 55 -19 60 -23 6
-5 29 -13 50 -18 119 -29 358 -92 362 -96 5 -5 -51 -219 -76 -289 -10 -29 -31
-92 -45 -142 -31 -103 -72 -236 -85 -280 -5 -16 -21 -70 -36 -120 -15 -49 -30
-101 -35 -115 -5 -14 -20 -63 -34 -110 -14 -47 -43 -143 -65 -215 -21 -71 -53
-177 -71 -235 -56 -186 -92 -304 -106 -345 -7 -22 -34 -107 -58 -190 -35 -118
-135 -451 -272 -908 -4 -14 -14 -17 -42 -15 l-37 3 3 45 c2 36 42 405 67 621
3 24 14 130 25 234 11 105 25 226 30 270 9 70 47 402 80 710 6 55 15 129 20
165 5 36 14 112 20 170 28 264 41 383 54 480 20 147 34 271 42 368 3 45 10 82
15 82 5 0 26 -7 47 -16z m3256 -38 c3 -14 13 -80 21 -148 8 -68 19 -148 24
-178 8 -48 20 -171 36 -370 2 -30 9 -80 14 -110 6 -30 18 -125 26 -210 20
-204 43 -406 50 -450 3 -19 14 -116 25 -215 48 -448 116 -1062 130 -1160 5
-38 12 -104 15 -145 4 -41 9 -83 12 -94 4 -16 1 -17 -29 -11 -18 4 -34 8 -35
9 -1 1 -11 94 -22 206 -11 113 -25 241 -31 285 -13 91 -33 278 -55 510 -8 88
-24 248 -35 355 -10 107 -22 218 -24 245 -3 28 -12 113 -20 190 -23 209 -34
322 -51 510 -8 94 -20 190 -25 215 -5 25 -14 104 -20 175 -6 72 -18 183 -26
248 -8 66 -14 130 -14 143 0 32 26 31 34 0z m-98 -122 c7 -60 17 -161 24 -224
6 -63 15 -139 21 -169 5 -30 9 -74 9 -97 0 -24 5 -74 10 -111 6 -38 26 -216
45 -398 47 -446 82 -766 100 -910 22 -178 41 -347 64 -565 12 -107 25 -231 31
-275 5 -44 12 -113 15 -152 l6 -73 -31 0 c-17 0 -32 6 -34 13 -3 6 -18 59 -36
117 -39 131 -114 375 -140 455 -10 33 -40 128 -65 210 -26 83 -62 200 -81 260
-44 144 -48 154 -79 260 -15 50 -42 140 -60 200 -18 61 -35 119 -38 130 -3 11
-14 49 -25 85 -53 169 -125 408 -132 435 -4 17 -27 89 -50 160 -23 72 -44 139
-47 150 -3 11 -18 63 -34 115 -16 52 -34 111 -39 130 -5 19 -20 72 -34 118
-13 45 -21 84 -17 86 3 2 38 9 76 16 39 6 77 15 85 20 9 4 36 11 60 15 25 4
50 10 55 14 6 3 33 11 60 18 28 6 67 16 88 22 20 6 52 15 70 19 18 5 46 16 63
24 16 9 33 15 39 14 5 -2 15 -52 21 -112z m-3416 52 c0 -19 -13 -135 -29 -258
-36 -271 -52 -410 -92 -773 -39 -358 -43 -393 -69 -610 -30 -253 -49 -425 -60
-530 -5 -49 -14 -135 -20 -190 -6 -55 -15 -138 -20 -185 -5 -47 -14 -123 -19
-170 -6 -47 -16 -143 -21 -215 -10 -114 -14 -133 -34 -155 -44 -47 -59 -88
-54 -154 4 -52 1 -68 -24 -114 -36 -70 -36 -115 1 -186 l30 -56 -25 -55 c-13
-31 -24 -62 -24 -70 0 -18 -25 -19 -64 -2 l-30 13 -1 189 c-1 160 -5 205 -24
285 -62 258 -140 410 -278 540 -82 79 -144 116 -227 140 -47 13 -223 10 -258
-5 -33 -13 -23 14 61 170 117 217 193 359 309 585 72 141 126 242 182 345 104
190 156 288 260 490 93 180 132 255 170 320 70 121 340 656 340 674 0 6 5 11
10 11 6 0 10 -15 10 -34z m953 -95 c7 -7 -3 -39 -33 -106 -4 -11 -11 -31 -15
-45 -16 -61 -81 -284 -127 -430 -11 -36 -22 -74 -25 -85 -2 -11 -8 -29 -13
-40 -4 -11 -19 -58 -33 -105 -14 -47 -41 -137 -60 -200 -19 -63 -45 -149 -58
-190 -12 -41 -30 -102 -41 -135 -22 -68 -106 -354 -118 -400 -4 -16 -12 -41
-18 -55 -5 -14 -17 -50 -25 -80 -20 -71 -71 -239 -109 -360 -17 -52 -34 -108
-38 -125 -4 -16 -29 -102 -55 -190 -26 -88 -65 -223 -86 -300 -52 -183 -46
-170 -64 -151 -9 9 -22 19 -30 24 -12 6 -11 21 11 92 14 47 30 94 34 105 5 11
14 40 20 65 18 71 41 143 51 162 5 10 9 27 9 37 0 11 4 30 9 43 5 13 28 84 51
158 23 74 52 169 64 210 13 41 31 102 41 135 26 92 56 188 65 210 4 11 15 45
24 75 23 79 61 205 84 280 11 36 34 112 51 170 18 58 45 148 61 200 16 52 34
115 41 140 7 25 16 49 21 55 4 5 8 18 8 30 0 11 7 33 15 49 8 15 15 33 15 39
0 12 37 139 50 172 4 11 18 54 30 95 12 41 30 104 41 140 10 36 23 74 28 85 6
11 22 67 36 125 15 57 29 108 32 113 5 8 42 0 56 -12z m297 -31 c335 -42 806
-52 1135 -25 218 18 215 18 215 3 0 -7 18 -71 40 -143 22 -71 50 -161 61 -200
12 -38 25 -81 29 -95 5 -14 18 -59 30 -100 12 -41 26 -86 30 -100 4 -14 15
-52 25 -85 9 -33 27 -94 40 -135 13 -41 32 -106 44 -145 11 -38 39 -131 61
-205 54 -180 83 -276 115 -390 16 -52 40 -135 56 -185 15 -49 48 -160 74 -245
26 -85 56 -184 67 -220 11 -36 24 -78 28 -95 78 -267 125 -423 173 -575 11
-36 20 -84 19 -107 -1 -24 -3 -76 -4 -117 -2 -46 -7 -72 -13 -68 -5 3 -29 18
-53 34 -61 42 -155 84 -247 110 -71 20 -101 23 -280 23 -275 0 -400 -23 -615
-112 -216 -89 -450 -362 -555 -646 -10 -26 -20 -45 -23 -43 -2 3 -17 42 -32
88 -103 307 -367 585 -660 696 -283 108 -665 15 -918 -223 -29 -27 -58 -51
-63 -53 -20 -8 -7 17 29 55 57 60 75 138 48 213 -14 39 -12 47 79 350 26 85
50 169 55 185 4 17 24 82 44 145 19 63 69 230 111 370 75 249 105 348 146 480
12 36 24 79 29 95 9 34 40 139 100 335 23 74 46 150 51 168 15 51 27 92 47
162 99 330 138 457 159 525 14 44 31 100 38 125 20 65 53 159 61 171 4 7 19 8
38 5 17 -4 101 -15 186 -26z m1493 -91 c15 -52 32 -103 37 -114 4 -11 10 -29
13 -40 5 -19 65 -222 128 -430 17 -55 34 -109 39 -121 4 -11 18 -56 29 -100
12 -43 26 -88 31 -99 4 -11 16 -47 25 -80 9 -33 29 -103 45 -155 16 -52 34
-115 40 -140 7 -25 25 -85 41 -135 47 -147 56 -175 89 -285 32 -109 64 -212
149 -485 27 -88 57 -185 66 -215 63 -205 76 -249 86 -285 7 -22 21 -67 32 -99
16 -44 18 -61 9 -64 -7 -2 -19 -11 -28 -19 -18 -19 -18 -19 -34 42 -7 28 -16
55 -20 60 -3 6 -15 39 -25 75 -9 36 -32 110 -50 165 -18 55 -43 136 -55 180
-12 44 -31 107 -43 140 -11 33 -23 76 -27 95 -5 19 -18 67 -30 105 -22 70 -30
99 -49 165 -8 30 -37 126 -125 420 -8 25 -37 119 -65 210 -71 226 -74 236
-141 470 -12 41 -28 91 -36 110 -7 19 -25 73 -39 120 -14 47 -34 114 -45 150
-11 36 -35 119 -55 185 -20 66 -44 149 -55 185 -24 79 -24 77 -2 83 31 8 36 2
65 -94z m-5205 -155 c28 -19 60 -81 68 -131 14 -92 67 -162 137 -183 84 -24
92 -37 42 -64 -22 -12 -52 -19 -83 -18 -94 4 -130 17 -207 81 -27 22 -52 38
-57 35 -15 -10 -38 64 -38 124 0 68 32 140 70 159 33 16 41 16 68 -3z m-160
-385 c60 -65 176 -163 230 -194 30 -18 42 -35 24 -35 -5 0 -9 -7 -9 -15 0 -21
24 -19 36 3 9 14 10 14 11 2 0 -24 -21 -40 -50 -40 -33 0 -196 82 -233 118
-36 34 -84 102 -102 146 -12 29 -12 36 1 54 8 12 20 22 25 22 6 0 35 -27 67
-61z m-147 -121 c10 -13 18 -28 19 -34 0 -6 18 -32 41 -58 22 -25 36 -46 30
-46 -5 0 -15 8 -20 18 -13 22 -14 6 -2 -36 12 -41 4 -65 -18 -57 -13 5 -14 4
-3 -6 15 -16 16 -59 1 -59 -6 0 -9 -7 -5 -15 7 -19 -3 -47 -15 -39 -5 3 -9 0
-9 -5 0 -6 6 -11 13 -11 9 0 9 -2 -1 -9 -8 -4 -13 -12 -12 -17 0 -5 -20 -44
-45 -86 -31 -52 -44 -84 -40 -97 7 -22 -31 -88 -55 -96 -20 -8 -63 -102 -56
-122 9 -23 -41 -103 -64 -103 -26 0 -70 -67 -70 -105 0 -47 -50 -119 -91 -131
-39 -11 -81 -67 -77 -100 4 -30 -40 -90 -55 -75 -23 23 -55 11 -91 -33 -20
-23 -36 -47 -36 -52 0 -5 -21 -17 -46 -28 -25 -10 -58 -29 -73 -42 -33 -27
-198 -58 -278 -52 -54 5 -71 17 -110 75 -24 36 -29 181 -9 253 25 88 85 204
156 300 96 129 326 350 552 531 331 263 380 303 412 331 17 15 33 28 34 28 2
0 12 -10 23 -22z m2053 -217 c-5 -3 -21 -28 -35 -56 -14 -27 -66 -126 -116
-220 -50 -93 -113 -213 -140 -265 -101 -193 -172 -327 -202 -380 -17 -30 -51
-95 -76 -143 -39 -76 -48 -87 -61 -76 -20 16 -12 48 30 113 18 28 46 76 63
106 16 30 40 71 51 90 12 19 25 42 29 50 3 8 50 92 103 186 54 93 108 190 122
215 36 64 90 155 116 197 12 21 31 53 40 72 56 112 76 144 80 131 2 -7 1 -16
-4 -20z m-690 -1187 c34 -35 33 -49 -9 -118 -19 -32 -35 -60 -35 -61 0 -1 -7
-20 -16 -41 l-16 -39 -35 70 c-42 86 -40 134 9 183 37 39 67 40 102 6z m6717
-10 c34 -33 44 -80 26 -132 -13 -37 -55 -100 -67 -101 -3 -1 -28 43 -54 98
l-49 98 28 38 c25 32 33 36 59 31 17 -4 42 -18 57 -32z m-6453 -369 c17 -3 32
-10 32 -15 0 -5 7 -7 15 -4 24 9 136 -60 191 -118 72 -76 128 -168 168 -278 8
-19 17 -43 21 -52 4 -11 3 -18 -4 -18 -6 0 -11 7 -11 15 0 9 -7 30 -16 47 -15
29 -17 30 -27 13 -7 -14 -7 -20 1 -23 7 -2 12 -12 12 -23 0 -10 5 -19 10 -19
6 0 10 -11 10 -24 0 -14 5 -28 10 -31 6 -3 10 1 10 9 0 36 16 12 31 -44 13
-49 13 -60 2 -56 -7 3 -13 0 -13 -6 0 -6 -3 -8 -6 -5 -4 4 -1 13 5 21 10 12 8
17 -8 26 -12 6 -21 17 -21 25 0 8 -4 15 -10 15 -5 0 -10 9 -10 19 0 11 -4 22
-9 25 -5 3 -12 18 -16 33 -3 15 -15 40 -27 55 -19 28 -18 66 1 53 6 -3 8 -12
4 -20 -4 -11 -1 -13 11 -9 21 8 21 8 -19 91 -20 39 -59 95 -87 124 l-51 53
-11 -32 -12 -33 -27 24 c-16 13 -25 29 -22 38 3 8 -4 20 -17 28 -23 14 -23 14
-4 -8 20 -22 6 -30 -16 -8 -7 7 -28 20 -46 28 -18 8 -30 19 -28 26 3 6 -2 19
-10 30 -9 10 -13 14 -11 8 6 -13 -20 -38 -28 -26 -3 5 1 11 7 14 7 2 10 8 5
12 -8 9 -32 13 -92 14 -26 1 -35 4 -26 10 13 8 74 6 139 -4z m-474 -61 c18
-25 18 -27 0 -67 -10 -23 -30 -63 -45 -88 -15 -25 -30 -57 -34 -70 -4 -13 -13
-34 -21 -46 -8 -12 -28 -64 -45 -115 -28 -81 -32 -107 -33 -201 0 -104 -1
-107 -17 -85 -25 32 -43 128 -35 185 9 59 31 140 58 213 25 66 140 300 148
300 3 0 13 -12 24 -26z m7121 -157 c89 -188 124 -373 91 -475 -10 -29 -22 -52
-27 -52 -5 0 -9 56 -9 125 0 107 -3 133 -24 187 -26 67 -102 234 -141 309 -22
42 -23 47 -8 62 15 15 18 13 44 -23 16 -22 49 -82 74 -133z m-500 157 c12 -5
13 -9 5 -14 -7 -4 9 -8 36 -8 27 0 65 -7 84 -15 l35 -15 -61 5 c-37 3 -100 -1
-160 -11 -67 -12 -100 -14 -102 -7 -2 6 -8 11 -13 11 -6 0 -8 -4 -4 -9 10 -17
-15 -23 -31 -7 -18 18 -28 21 -18 5 4 -8 -4 -9 -27 -5 -27 6 -30 5 -16 -4 21
-13 22 -30 2 -30 -8 0 -15 5 -15 10 0 17 -29 11 -63 -12 -18 -13 -33 -26 -35
-30 -2 -5 -9 -8 -15 -8 -14 0 31 48 63 65 118 64 276 101 335 79z m-5084 -411
c70 -36 99 -79 99 -148 0 -37 -5 -57 -18 -68 -16 -15 -21 -13 -65 22 -59 46
-128 72 -196 73 -50 0 -81 16 -81 40 0 21 42 79 68 93 46 24 131 19 193 -12z
m3933 13 c42 -18 89 -77 84 -108 -2 -17 -11 -24 -30 -26 -16 -2 -28 2 -28 8 0
26 -33 43 -92 47 -54 4 -60 3 -54 -12 3 -9 6 -21 6 -26 0 -5 10 -9 22 -9 21 0
21 0 2 15 -18 14 -18 14 9 15 16 0 26 -4 23 -8 -3 -4 5 -8 17 -9 48 -1 58 -3
52 -13 -3 -5 -20 -10 -36 -10 -16 0 -46 -7 -66 -15 -34 -14 -120 -77 -135 -99
-4 -6 -15 1 -27 15 -23 27 -28 97 -10 132 46 90 174 140 263 103z m1569 -43
c-22 -63 -260 -306 -398 -407 -49 -36 -94 -69 -100 -74 -79 -61 -281 -170
-435 -235 -105 -45 -347 -124 -354 -116 -2 2 -7 18 -10 35 l-7 31 88 30 c409
140 696 288 948 490 87 69 244 226 253 254 2 5 8 9 13 9 4 0 6 -8 2 -17z
m-6937 -142 c126 -118 370 -267 589 -361 28 -12 77 -34 110 -50 58 -27 201
-84 278 -111 25 -9 36 -18 32 -27 -3 -7 -5 -20 -5 -28 0 -24 -24 -17 -192 57
-320 141 -412 190 -618 330 -77 53 -197 159 -260 232 -43 50 -9 28 66 -42z
m4516 8 c118 -17 258 -58 328 -95 85 -45 108 -63 94 -72 -15 -9 -28 -52 -16
-52 5 0 15 7 22 15 9 11 9 15 1 15 -7 0 -9 5 -6 10 9 15 17 12 55 -21 28 -24
32 -31 20 -39 -9 -6 -17 -5 -21 2 -4 7 -9 6 -14 -2 -4 -7 1 -13 14 -17 18 -4
31 -23 16 -23 -6 0 -57 29 -138 78 -37 22 -77 44 -89 47 -13 4 -33 13 -45 21
-51 32 -233 66 -365 67 -130 2 -176 19 -56 21 41 1 72 7 84 16 10 9 15 10 10
3 -4 -8 -2 -13 6 -14 7 0 22 -2 33 -4 67 -12 71 -12 72 5 1 13 -5 16 -25 14
-15 -1 -29 2 -33 8 -4 6 -47 10 -109 9 -85 -1 -105 -4 -116 -19 -10 -12 -13
-13 -14 -3 0 10 -3 11 -13 3 -7 -6 -25 -9 -40 -8 -15 2 -27 -1 -27 -5 0 -5 -3
-8 -7 -8 -21 3 -34 -2 -28 -11 8 -13 70 -7 88 9 11 9 17 8 26 -3 10 -11 3 -16
-41 -24 -105 -21 -188 -44 -188 -53 0 -5 -9 -9 -19 -9 -21 0 -184 -80 -189
-92 -2 -5 -10 -8 -18 -8 -8 0 -14 -4 -14 -9 0 -5 -9 -11 -20 -14 -13 -3 -20 0
-20 8 0 7 -6 15 -12 18 -9 3 -3 12 14 26 29 23 43 27 43 12 0 -5 3 -13 8 -17
4 -4 7 4 7 19 0 32 -14 42 -33 22 -9 -8 -19 -15 -24 -15 -7 0 -27 -15 -80 -60
-26 -22 -25 -8 2 20 28 29 156 120 170 120 3 0 30 11 58 25 60 28 139 49 252
65 44 7 96 16 115 20 52 12 200 11 282 -1z m-1996 -20 c95 -40 112 -49 165
-86 63 -43 56 -37 153 -132 42 -41 74 -77 72 -79 -3 -2 -20 12 -39 32 -20 20
-39 36 -44 36 -4 0 -23 14 -41 31 -18 17 -36 29 -39 26 -3 -3 4 -12 16 -19 25
-15 28 -30 5 -21 -14 5 -14 3 -3 -16 8 -11 17 -21 21 -21 5 0 8 -5 8 -11 0 -6
-21 8 -47 30 -62 55 -168 124 -245 160 -48 23 -57 30 -37 30 14 1 31 -5 38
-11 10 -11 11 -10 6 4 -5 13 -2 15 14 11 38 -10 22 6 -31 31 -64 30 -40 34 28
5z m-1206 -51 c87 -20 156 -104 142 -174 -6 -30 -49 -74 -74 -74 -16 0 -18 5
-13 34 14 71 -101 137 -186 107 -47 -16 -49 -15 -49 28 0 28 7 45 26 65 30 30
70 33 154 14z m4145 -10 c30 -27 46 -74 34 -106 -10 -26 -34 -29 -43 -6 -5 13
-17 16 -64 12 -89 -6 -138 -53 -126 -118 7 -34 4 -36 -34 -16 -90 46 -56 174
60 230 69 33 137 35 173 4z m-8 -278 c23 -52 48 -117 56 -145 80 -255 84 -523
9 -607 -23 -27 -68 -23 -88 7 -15 23 -15 34 -5 98 31 187 23 332 -30 550 -36
147 -38 175 -14 194 11 7 22 10 25 6 4 -5 25 -51 47 -103z m-4182 90 c3 -5 -8
-67 -25 -137 -17 -71 -36 -148 -41 -173 -18 -79 -23 -256 -9 -375 15 -141 11
-165 -31 -165 -20 0 -40 10 -58 28 -90 89 -53 477 70 742 12 24 25 55 30 67 9
24 52 33 64 13z m215 -419 c242 -65 278 -73 518 -121 612 -120 1167 -164 1782
-141 509 20 862 67 1355 182 210 49 209 49 210 24 1 -40 -13 -52 -77 -65 -114
-22 -242 -51 -318 -70 -226 -58 -614 -118 -935 -145 -223 -19 -1023 -13 -1224
9 -481 53 -797 110 -1106 201 -49 14 -338 91 -382 102 -18 4 -23 12 -23 39 0
19 3 34 7 34 4 0 91 -22 193 -49z"/>
<path d="M10996 17733 c-4 -4 12 -28 42 -58 17 -18 15 -28 -3 -21 -9 3 -18 -1
-21 -9 -5 -11 -10 -12 -25 -2 -14 9 -21 9 -31 -1 -18 -18 -37 -15 -33 6 1 11
10 16 24 15 14 -2 21 3 21 15 0 14 -2 15 -10 2 -5 -8 -10 -10 -10 -3 0 6 -14
16 -30 22 -17 5 -29 7 -26 3 3 -5 1 -14 -5 -22 -5 -10 -9 -11 -9 -3 0 9 -8 9
-31 -1 -40 -17 -54 -40 -35 -59 17 -17 22 -45 13 -74 -9 -24 -37 -39 -38 -20
0 7 -5 1 -10 -12 -6 -16 -6 -28 0 -34 12 -12 42 -1 39 14 -2 6 3 13 10 15 7 1
8 0 3 -2 -14 -8 -2 -37 25 -57 23 -17 23 -17 17 0 -6 16 -5 16 10 4 14 -11 18
-11 23 4 4 9 1 27 -6 41 -12 21 -11 26 10 44 13 11 28 19 34 17 6 -2 16 3 23
12 10 14 14 13 33 -12 23 -28 27 -30 30 -12 1 6 7 16 13 23 18 22 19 52 1 52
-8 0 -12 5 -9 11 4 6 13 8 19 6 18 -7 46 13 29 20 -7 2 -13 8 -13 12 0 12 62
7 88 -7 13 -7 22 -9 22 -3 0 6 -9 15 -20 21 -32 17 -159 58 -164 53z"/>
<path d="M8015 17723 c-310 -25 -593 -80 -795 -153 -200 -73 -330 -191 -330
-300 0 -75 80 -174 195 -241 149 -87 460 -177 721 -209 49 -6 121 -15 159 -21
39 -5 129 -12 200 -15 72 -3 159 -6 195 -8 182 -11 696 35 890 79 41 9 138 37
215 61 418 130 544 316 340 502 -93 86 -281 167 -510 222 -116 28 -367 67
-509 80 -100 9 -674 11 -771 3z"/>
<path d="M6728 16993 c-10 -2 -18 -9 -18 -14 0 -5 -7 -9 -16 -9 -8 0 -12 -4
-9 -10 3 -5 -1 -10 -9 -10 -9 0 -15 -4 -13 -9 1 -5 -7 -17 -18 -26 -11 -9 -14
-14 -7 -10 7 4 12 -1 12 -12 0 -33 41 -60 85 -57 96 7 110 11 113 33 4 23 37
29 45 9 7 -18 27 10 27 37 0 17 -2 17 -10 5 -7 -10 -12 -12 -17 -4 -5 6 -23
18 -42 27 -36 18 -55 9 -44 -20 3 -7 -2 -13 -11 -13 -9 0 -16 -5 -16 -11 0 -8
-6 -7 -17 2 -11 10 -14 10 -9 2 12 -21 -19 -15 -45 7 l-24 21 30 -3 c28 -3 30
-1 31 35 1 20 1 36 0 36 -1 -1 -9 -3 -18 -6z"/>
<path d="M9443 16531 c-20 -10 -34 -26 -38 -43 -6 -24 -33 -57 -42 -50 -9 6
-23 1 -20 -9 3 -18 -56 -20 -81 -3 -13 9 -21 18 -18 21 3 3 -2 12 -11 18 -20
14 -90 8 -113 -9 -43 -34 -66 -35 -106 -8 -22 14 -39 26 -40 27 0 0 -9 -7 -19
-15 -15 -12 -17 -12 -10 -1 5 9 4 12 -3 7 -6 -3 -16 -1 -24 6 -17 17 -45 21
-53 9 -3 -6 -12 -8 -20 -4 -18 6 -20 -8 -3 -25 9 -9 8 -15 -7 -26 -15 -11 -22
-11 -27 -3 -6 9 -11 8 -18 -3 -8 -13 -11 -11 -16 8 -8 27 -8 27 -34 5 -20 -17
-27 -43 -12 -43 4 0 13 -9 20 -20 10 -17 9 -23 -7 -36 -11 -10 -17 -23 -14
-30 3 -8 0 -14 -6 -14 -6 0 -11 4 -11 9 0 10 -26 9 -36 -2 -4 -4 0 -7 9 -7 9
0 17 -5 17 -10 0 -7 7 -7 21 1 15 8 23 8 28 0 8 -12 65 -23 134 -25 33 -1 46
-5 42 -13 -2 -8 4 -13 15 -13 11 0 19 6 18 13 -2 8 14 13 50 15 40 2 52 0 52
-12 0 -13 28 -15 113 -7 5 1 6 5 3 10 -3 4 12 13 33 20 39 11 97 6 107 -11 7
-11 40 32 36 46 -5 15 19 66 32 67 6 1 18 1 28 0 9 -1 24 8 33 21 11 15 19 19
22 10 8 -21 23 -3 23 28 0 19 9 35 25 48 30 24 31 33 7 55 -22 20 -36 20 -79
-2z m-519 -106 c-5 -29 -3 -33 20 -37 16 -3 27 0 31 10 4 11 9 11 19 3 7 -6
15 -9 18 -6 3 3 10 -1 17 -9 10 -11 6 -20 -21 -45 -18 -17 -37 -31 -41 -31 -5
0 -15 -7 -23 -15 -9 -8 -33 -15 -55 -15 l-40 0 24 26 c16 16 23 34 19 46 -4
15 -7 17 -13 6 -6 -8 -9 -9 -9 -1 0 6 -9 9 -21 6 -20 -6 -20 -4 -8 18 7 13 13
32 14 41 1 10 4 19 6 20 55 33 72 29 63 -17z"/>
<path d="M8350 16440 c0 -5 -6 -10 -14 -10 -8 0 -18 -9 -21 -20 -3 -11 -11
-20 -17 -20 -6 0 -6 6 2 15 16 19 7 19 -30 0 -16 -8 -35 -13 -42 -10 -8 3 -14
-2 -15 -14 -1 -15 3 -18 15 -14 9 4 20 11 23 16 3 5 9 -1 12 -12 4 -16 0 -21
-14 -21 -10 0 -19 -5 -19 -10 0 -6 -11 -15 -25 -20 -39 -15 -29 -30 20 -30 34
0 47 4 52 18 4 9 13 23 20 30 15 16 18 36 3 27 -5 -3 -10 -1 -10 5 0 7 6 10
14 7 8 -3 17 -3 19 1 2 4 2 1 1 -5 -2 -7 2 -13 9 -13 28 0 64 -25 76 -52 15
-33 40 -36 64 -8 9 11 13 20 8 20 -5 0 -11 8 -13 18 -3 9 -18 23 -34 31 -16 7
-36 17 -44 21 -8 4 -14 19 -13 34 1 17 -3 26 -13 26 -8 0 -14 -4 -14 -10z"/>
<path d="M9532 16414 c-12 -8 -22 -12 -22 -9 0 6 -56 -49 -94 -92 l-18 -22 68
5 c117 8 129 10 149 22 11 6 14 12 8 12 -7 0 -13 5 -13 11 0 5 6 7 13 3 9 -6
9 -4 -1 8 -8 10 -9 17 -3 20 19 6 -6 29 -35 32 -16 2 -28 9 -26 15 3 14 1 14
-26 -5z"/>
<path d="M13984 14737 c-71 -42 -174 -155 -174 -191 0 -41 56 -24 109 33 13
14 46 50 73 78 42 45 47 56 38 73 -12 23 -17 24 -46 7z"/>
</g>
</svg>
